<svg width="28" height="28" viewBox="0 0 28 28" fill="none" xmlns="http://www.w3.org/2000/svg">
<g filter="url(#filter0_d_4432_5)">
<rect x="6" y="4" width="16" height="16" rx="3" fill="white"/>
</g>
<g opacity="0.7" filter="url(#filter1_f_4432_5)">
<path fill-rule="evenodd" clip-rule="evenodd" d="M17.4666 13.2875C17.3925 13.3634 17.2517 13.3664 17.1499 13.2875C17.0382 13.201 17.0572 13.1043 17.085 12.9397L17.2312 12.1068H18.1294L18.2391 11.4725H17.3357L17.4401 10.8527H16.5889L16.5158 11.2788C16.5019 11.353 16.4723 11.4063 16.4271 11.4386C16.3853 11.4676 16.3174 11.4822 16.2234 11.4822H15.6437L15.5393 12.1068H16.3174L16.1555 13.0704C16.0928 13.432 16.1433 13.6886 16.3069 13.8404C16.4093 13.9353 16.5608 14.0006 16.7614 14.0361L15.2049 15.7111C14.4307 16.5441 14.0437 16.9606 13.5228 16.9974C13.0019 17.0342 12.5506 16.677 11.648 15.9626L11.3966 15.7636C10.494 15.0491 10.0427 14.6919 10.0028 14.2112C9.96289 13.7305 10.35 13.3139 11.1241 12.4809C11.2297 12.3673 11.2842 12.3142 11.4068 12.1988C11.5293 12.0833 11.7976 12.1068 11.7976 12.1068L11.4739 14.0099H12.3825L12.7063 12.1068H13.5366L13.6462 11.4725H12.8159L12.8264 11.4144C12.8473 11.2885 12.8978 11.1965 12.9778 11.1384C13.0614 11.077 13.1937 11.0463 13.3747 11.0463C13.4583 11.0463 13.5714 11.0528 13.7141 11.0657L13.8238 10.4217C13.6114 10.3991 13.4234 10.3878 13.2598 10.3878C12.8595 10.3878 12.5514 10.4604 12.3355 10.6057C12.1232 10.751 11.9856 11.0044 11.923 11.3659L11.9073 11.4725C11.9073 11.4725 11.725 11.4842 11.5588 11.3994C11.3225 11.2789 11.1712 11.1426 11.0393 11.0021C10.8259 10.7749 10.7118 10.5725 10.6927 10.3416C10.6528 9.86092 11.0398 9.4444 11.814 8.61139L12.1136 8.28894C12.8877 7.45593 13.2748 7.03942 13.7957 7.00259C14.3166 6.96575 14.7679 7.32298 15.6705 8.03742L17.6034 9.56742C18.506 10.2819 18.9573 10.6391 18.9972 11.1198C19.0371 11.6006 18.6501 12.0171 17.8759 12.8501L17.5763 13.1725C17.5117 13.2419 17.529 13.2237 17.4666 13.2875ZM13.8603 14.0099L14.2938 11.4725H15.2024L14.769 14.0099H13.8603ZM14.8494 11.1868C15.1301 11.1868 15.3576 11.0219 15.3576 10.8185C15.3576 10.6151 15.1301 10.4502 14.8494 10.4502C14.5688 10.4502 14.3412 10.6151 14.3412 10.8185C14.3412 11.0219 14.5688 11.1868 14.8494 11.1868Z" fill="url(#paint0_linear_4432_5)"/>
</g>
<path fill-rule="evenodd" clip-rule="evenodd" d="M17.4666 13.2875C17.3925 13.3634 17.2517 13.3664 17.1499 13.2875C17.0382 13.201 17.0572 13.1043 17.085 12.9397L17.2312 12.1068H18.1294L18.2391 11.4725H17.3357L17.4401 10.8527H16.5889L16.5158 11.2788C16.5019 11.353 16.4723 11.4063 16.4271 11.4386C16.3853 11.4676 16.3174 11.4822 16.2234 11.4822H15.6437L15.5393 12.1068H16.3174L16.1555 13.0704C16.0928 13.432 16.1433 13.6886 16.3069 13.8404C16.4093 13.9353 16.5608 14.0006 16.7614 14.0361L15.2049 15.7111C14.4307 16.5441 14.0437 16.9606 13.5228 16.9974C13.0019 17.0342 12.5506 16.677 11.648 15.9626L11.3966 15.7636C10.494 15.0491 10.0427 14.6919 10.0028 14.2112C9.96289 13.7305 10.35 13.3139 11.1241 12.4809C11.2297 12.3673 11.2842 12.3142 11.4068 12.1988C11.5293 12.0833 11.7976 12.1068 11.7976 12.1068L11.4739 14.0099H12.3825L12.7063 12.1068H13.5366L13.6462 11.4725H12.8159L12.8264 11.4144C12.8473 11.2885 12.8978 11.1965 12.9778 11.1384C13.0614 11.077 13.1937 11.0463 13.3747 11.0463C13.4583 11.0463 13.5714 11.0528 13.7141 11.0657L13.8238 10.4217C13.6114 10.3991 13.4234 10.3878 13.2598 10.3878C12.8595 10.3878 12.5514 10.4604 12.3355 10.6057C12.1232 10.751 11.9856 11.0044 11.923 11.3659L11.9073 11.4725C11.9073 11.4725 11.725 11.4842 11.5588 11.3994C11.3225 11.2789 11.1712 11.1426 11.0393 11.0021C10.8259 10.7749 10.7118 10.5725 10.6927 10.3416C10.6528 9.86092 11.0398 9.4444 11.814 8.61139L12.1136 8.28894C12.8877 7.45593 13.2748 7.03942 13.7957 7.00259C14.3166 6.96575 14.7679 7.32298 15.6705 8.03742L17.6034 9.56742C18.506 10.2819 18.9573 10.6391 18.9972 11.1198C19.0371 11.6006 18.6501 12.0171 17.8759 12.8501L17.5763 13.1725C17.5117 13.2419 17.529 13.2237 17.4666 13.2875ZM13.8603 14.0099L14.2938 11.4725H15.2024L14.769 14.0099H13.8603ZM14.8494 11.1868C15.1301 11.1868 15.3576 11.0219 15.3576 10.8185C15.3576 10.6151 15.1301 10.4502 14.8494 10.4502C14.5688 10.4502 14.3412 10.6151 14.3412 10.8185C14.3412 11.0219 14.5688 11.1868 14.8494 11.1868Z" fill="url(#paint1_linear_4432_5)"/>
<defs>
<filter id="filter0_d_4432_5" x="0.8" y="0.8" width="26.4" height="26.4" filterUnits="userSpaceOnUse" color-interpolation-filters="sRGB">
<feFlood flood-opacity="0" result="BackgroundImageFix"/>
<feColorMatrix in="SourceAlpha" type="matrix" values="0 0 0 0 0 0 0 0 0 0 0 0 0 0 0 0 0 0 127 0" result="hardAlpha"/>
<feOffset dy="2"/>
<feGaussianBlur stdDeviation="2.6"/>
<feComposite in2="hardAlpha" operator="out"/>
<feColorMatrix type="matrix" values="0 0 0 0 0 0 0 0 0 0 0 0 0 0 0 0 0 0 0.1 0"/>
<feBlend mode="normal" in2="BackgroundImageFix" result="effect1_dropShadow_4432_5"/>
<feBlend mode="normal" in="SourceGraphic" in2="effect1_dropShadow_4432_5" result="shape"/>
</filter>
<filter id="filter1_f_4432_5" x="3.3" y="0.3" width="22.4" height="23.4" filterUnits="userSpaceOnUse" color-interpolation-filters="sRGB">
<feFlood flood-opacity="0" result="BackgroundImageFix"/>
<feBlend mode="normal" in="SourceGraphic" in2="BackgroundImageFix" result="shape"/>
<feGaussianBlur stdDeviation="3.35" result="effect1_foregroundBlur_4432_5"/>
</filter>
<linearGradient id="paint0_linear_4432_5" x1="11.2641" y1="14.3918" x2="11.0225" y2="9.95966" gradientUnits="userSpaceOnUse">
<stop offset="0.000910271" stop-color="#F11712"/>
<stop offset="0.567758" stop-color="#D400F7"/>
<stop offset="1" stop-color="#0054F7"/>
</linearGradient>
<linearGradient id="paint1_linear_4432_5" x1="11.2641" y1="14.3918" x2="11.0225" y2="9.95966" gradientUnits="userSpaceOnUse">
<stop offset="0.000910271" stop-color="#F11712"/>
<stop offset="0.567758" stop-color="#D400F7"/>
<stop offset="1" stop-color="#0054F7"/>
</linearGradient>
</defs>
</svg>
