<svg width="28" height="28" viewBox="0 0 28 28" fill="none" xmlns="http://www.w3.org/2000/svg">
<path d="M8.60233 4.76367C5.10034 4.76367 2.25311 7.64397 2.25311 11.1129C2.25311 12.3232 2.80206 13.3715 3.31132 14.1288C3.82057 14.8861 4.34306 15.3721 4.34306 15.3721L13.4965 24.552L14.105 25.1605L14.7135 24.552L23.8669 15.3721C23.8669 15.3721 25.9569 13.5302 25.9569 11.1129C25.9569 7.64397 23.1096 4.76367 19.6076 4.76367C16.7009 4.76367 14.8292 6.51301 14.105 7.25044C13.3808 6.51301 11.5091 4.76367 8.60233 4.76367ZM8.60233 6.4568C11.1321 6.4568 13.4701 8.91712 13.4701 8.91712L14.105 9.63141L14.7399 8.91712C14.7399 8.91712 17.0779 6.4568 19.6076 6.4568C22.1837 6.4568 24.2637 8.5699 24.2637 11.1129C24.2637 12.4191 22.6765 14.1817 22.6765 14.1817L14.105 22.7531L5.53354 14.1817C5.53354 14.1817 5.12349 13.7881 4.71344 13.1764C4.30339 12.5646 3.94624 11.7677 3.94624 11.1129C3.94624 8.5699 6.02626 6.4568 8.60233 6.4568Z" fill="#0054F7"/>
</svg>
