<svg width="28" height="28" viewBox="0 0 28 28" fill="none" xmlns="http://www.w3.org/2000/svg">
<g opacity="0.8">
<path d="M4.81287 5.94727C4.3466 5.94727 3.96631 6.32755 3.96631 6.79383C3.96631 7.2601 4.3466 7.64039 4.81287 7.64039H6.69118L8.91341 16.5293C9.1019 17.2833 9.7765 17.7991 10.5536 17.7991H20.2626C21.0266 17.7991 21.6747 17.2932 21.8764 16.5557L24.0722 8.48695H9.89225L10.3155 10.1801H21.8764L20.2626 16.106H10.5536L8.3314 7.21711C8.14291 6.46314 7.4683 5.94727 6.69118 5.94727H4.81287ZM19.2044 17.7991C17.8122 17.7991 16.6647 18.9466 16.6647 20.3388C16.6647 21.731 17.8122 22.8785 19.2044 22.8785C20.5966 22.8785 21.7441 21.731 21.7441 20.3388C21.7441 18.9466 20.5966 17.7991 19.2044 17.7991ZM11.5854 17.7991C10.1932 17.7991 9.04568 18.9466 9.04568 20.3388C9.04568 21.731 10.1932 22.8785 11.5854 22.8785C12.9776 22.8785 14.1251 21.731 14.1251 20.3388C14.1251 18.9466 12.9776 17.7991 11.5854 17.7991ZM11.5854 19.4923C12.0616 19.4923 12.4319 19.8626 12.4319 20.3388C12.4319 20.815 12.0616 21.1854 11.5854 21.1854C11.1092 21.1854 10.7388 20.815 10.7388 20.3388C10.7388 19.8626 11.1092 19.4923 11.5854 19.4923ZM19.2044 19.4923C19.6807 19.4923 20.051 19.8626 20.051 20.3388C20.051 20.815 19.6807 21.1854 19.2044 21.1854C18.7282 21.1854 18.3579 20.815 18.3579 20.3388C18.3579 19.8626 18.7282 19.4923 19.2044 19.4923Z" fill="white"/>
</g>
</svg>
