<svg width="23" height="30" viewBox="0 0 23 30" fill="none" xmlns="http://www.w3.org/2000/svg">
<path d="M5.74098 0.339844C3.77643 0.339844 1.97564 1.71892 1.97564 3.66405V5.10886H3.10502C3.68574 5.10886 4.20153 5.45546 4.6491 6.10361C5.0402 6.66999 5.28189 7.42543 5.33949 7.99836C0.303038 16.5679 0.846266 28.6161 0.846266 28.6161L0.888166 29.7036H22.3926L22.2845 28.4749C22.2845 28.4749 21.7275 22.0795 20.0037 15.8489L19.7765 15.0217H18.9163C17.3312 15.0217 16.6013 14.6555 16.1789 14.168C15.7564 13.6807 15.5281 12.8549 15.5281 11.6336V8.77706C15.6473 8.99187 15.751 9.20137 15.8921 9.42115C16.9017 10.9929 18.6322 12.763 21.175 12.763V10.5042C19.6871 10.5042 18.5974 9.45085 17.7936 8.19916C17.246 7.34671 16.9666 6.6439 16.8009 6.18086C17.0841 6.05742 17.413 5.98672 17.7869 5.98672H22.3044V0.339844H18.1618H6.11819H5.74098ZM5.74098 2.59859H6.11819H18.1618H20.0456V3.72797H17.7869C15.5593 3.72797 13.9815 5.27645 13.49 7.11609H7.25637C7.08855 6.33073 6.99571 5.52526 6.50861 4.81985C6.02976 4.12664 5.29702 3.60656 4.46377 3.25374C4.68298 2.90928 5.06651 2.59859 5.74098 2.59859ZM7.15484 9.37484H13.2694V11.6336C13.2694 13.1228 13.5235 14.5544 14.4716 15.6482C15.2474 16.5432 16.4939 16.9721 17.97 17.1326C19.2211 21.9202 19.7282 25.9882 19.8802 27.4448H3.16894C3.15031 25.8484 3.14195 16.4064 7.15484 9.37484Z" fill="url(#paint0_linear_4322_23392)"/>
<defs>
<linearGradient id="paint0_linear_4322_23392" x1="-0.000200351" y1="-2.10717" x2="34.0948" y2="21.0048" gradientUnits="userSpaceOnUse">
<stop stop-color="white"/>
<stop offset="1" stop-color="white" stop-opacity="0"/>
</linearGradient>
</defs>
</svg>
