<svg width="37" height="26" viewBox="0 0 37 26" fill="none" xmlns="http://www.w3.org/2000/svg">
<path d="M0.0700073 0.845703V3.10445H21.5281V20.0451H14.5755C14.0724 18.1039 12.3255 16.657 10.2344 16.657C8.14323 16.657 6.39631 18.1039 5.89329 20.0451H4.58751V14.3982H2.32876V22.3038H5.89329C6.39631 24.245 8.14323 25.692 10.2344 25.692C12.3255 25.692 14.0724 24.245 14.5755 22.3038H23.9633C24.4663 24.245 26.2132 25.692 28.3044 25.692C30.3955 25.692 32.1424 24.245 32.6455 22.3038H36.21V13.0924L36.1394 12.9159L33.8807 6.13965L33.6337 5.3632H23.7869V0.845703H0.0700073ZM1.19938 5.3632V7.62195H11.3638V5.3632H1.19938ZM23.7869 7.62195H32.0101L33.9513 13.41V20.0451H32.6455C32.1424 18.1039 30.3955 16.657 28.3044 16.657C26.2132 16.657 24.4663 18.1039 23.9633 20.0451H23.7869V7.62195ZM2.32876 9.8807V12.1395H9.10501V9.8807H2.32876ZM10.2344 18.9157C11.4961 18.9157 12.4931 19.9127 12.4931 21.1745C12.4931 22.4362 11.4961 23.4332 10.2344 23.4332C8.97264 23.4332 7.97563 22.4362 7.97563 21.1745C7.97563 19.9127 8.97264 18.9157 10.2344 18.9157ZM28.3044 18.9157C29.5661 18.9157 30.5631 19.9127 30.5631 21.1745C30.5631 22.4362 29.5661 23.4332 28.3044 23.4332C27.0426 23.4332 26.0456 22.4362 26.0456 21.1745C26.0456 19.9127 27.0426 18.9157 28.3044 18.9157Z" fill="url(#paint0_linear_4322_23376)"/>
<defs>
<linearGradient id="paint0_linear_4322_23376" x1="-1.32003" y1="-1.22478" x2="28.4367" y2="38.7282" gradientUnits="userSpaceOnUse">
<stop stop-color="white"/>
<stop offset="1" stop-color="white" stop-opacity="0"/>
</linearGradient>
</defs>
</svg>
