<svg width="28" height="28" viewBox="0 0 28 28" fill="none" xmlns="http://www.w3.org/2000/svg">
<path fill-rule="evenodd" clip-rule="evenodd" d="M26.1316 13.983V13.8457V13.709C20.6335 13.5426 18.1195 13.4055 16.1141 11.4469C14.1562 9.44202 14.0185 6.92794 13.8526 1.42969H13.7153H13.5781C13.4123 6.92794 13.2745 9.44202 11.3164 11.4469C9.31119 13.4055 6.797 13.5426 1.29907 13.709V13.8457V13.983C6.797 14.1492 9.31119 14.2865 11.3164 16.2445C13.2745 18.2499 13.4123 20.7639 13.5781 26.2622H13.7153H13.8526C14.0185 20.7639 14.1562 18.2499 16.1141 16.2445C18.1195 14.2865 20.6335 14.1492 26.1316 13.983Z" fill="#0054F7"/>
</svg>
