<svg width="19" height="20" viewBox="0 0 19 20" fill="none" xmlns="http://www.w3.org/2000/svg">
<path d="M9.39625 1C8.35705 1 7.515 1.84205 7.515 2.88125V4.01H3V8.525H4.02146C5.00573 8.525 5.90114 9.23325 5.99971 10.2122C6.11258 11.3387 5.23191 12.2875 4.12875 12.2875H3V16.8025H7.515V15.7811C7.515 14.7968 8.22325 13.9014 9.20224 13.8027C10.3287 13.6899 11.2775 14.5706 11.2775 15.6737V16.8025H15.7925V12.2875H16.9212C17.9605 12.2875 18.8025 11.4455 18.8025 10.4062C18.8025 9.36705 17.9605 8.525 16.9212 8.525H15.7925V4.01H11.2775V2.88125C11.2775 1.84205 10.4354 1 9.39625 1Z" fill="#0054F7"/>
</svg>
