<svg width="87" height="92" viewBox="0 0 87 92" fill="none" xmlns="http://www.w3.org/2000/svg">
<g clip-path="url(#clip0_4322_23461)">
<g clip-path="url(#clip1_4322_23461)">
<path d="M48.1885 19.3652L48.2942 19.4107L48.279 19.4053C48.2455 19.3937 48.218 19.3841 48.1885 19.3652Z" fill="#34C759"/>
<path d="M9.34244 13.9234C9.35177 13.9205 9.36105 13.9175 9.35813 13.9082C9.35813 13.9082 9.35177 13.9205 9.34244 13.9234Z" fill="#34C759"/>
<path d="M9.34539 13.9336C9.34218 13.9397 9.33824 13.9435 9.3343 13.9473C9.33036 13.9511 9.32641 13.9549 9.32321 13.9611C9.33253 13.9581 9.33898 13.9459 9.34539 13.9336Z" fill="#34C759"/>
<path fill-rule="evenodd" clip-rule="evenodd" d="M23.6753 1.97305C22.7602 2.32033 21.8452 2.66761 20.9481 3.03994C19.1512 3.7753 17.3782 4.55438 15.6046 5.36435C14.5822 5.82702 13.5978 6.41093 12.6442 6.99543C11.922 7.43598 11.2238 7.92026 10.5558 8.436C9.77826 9.02692 9.01934 9.612 8.28725 10.2501C6.92041 11.4448 5.61767 12.6808 4.49967 14.1152C2.97015 16.0668 1.87425 18.2926 1.33083 20.7143C1.08069 21.8466 0.953535 23.0123 0.873 24.1634C0.801806 25.1477 0.776658 26.1484 0.850586 27.1386L0.85687 27.2357C0.921598 28.2362 0.985909 29.2292 1.1168 30.2194C1.18373 30.7612 1.25066 31.3029 1.34555 31.8357C1.5739 33.1564 1.90776 34.4544 2.32262 35.7169C2.72 36.9234 3.22287 38.1071 3.81318 39.2431C4.41514 40.4164 5.15465 41.5058 5.93787 42.5714C7.51073 44.69 9.38435 46.592 11.3728 48.3044C12.2488 49.0644 13.172 49.7545 14.0966 50.4455C14.2981 50.5961 14.4998 50.7469 14.701 50.8985C16.1545 51.9797 17.643 53.009 19.195 53.947C20.9702 55.0096 22.858 55.8428 24.8237 56.4671C25.1533 56.5722 25.4812 56.6824 25.8089 56.7927C26.4648 57.0131 27.1205 57.2337 27.7909 57.4132L27.8005 57.4158C28.8242 57.6879 29.8478 57.9598 30.8594 58.2254C31.7756 58.4715 32.7244 58.6254 33.6609 58.773C34.9519 58.9736 36.2289 59.0967 37.5414 59.137C38.7304 59.175 39.9375 59.0743 41.1264 58.9485C42.4239 58.8093 43.6949 58.5863 44.9649 58.2611C45.5053 58.123 46.031 57.9694 46.5474 57.7877C46.6638 57.833 46.7801 57.8784 46.8872 57.9267C48.6537 58.6338 50.4208 59.31 52.2462 59.8453C54.1607 60.4039 56.07 60.9129 58.0148 61.3391C58.7811 61.5105 59.5457 61.6549 60.3117 61.7997L60.3133 61.8C60.4819 61.8319 60.6506 61.8637 60.8193 61.8959C61.4358 62.0181 62.06 62.0962 62.6821 62.1741L62.6836 62.1743C62.9305 62.2052 63.1773 62.2361 63.4234 62.2697C63.7522 62.3172 64.0897 62.3346 64.4271 62.352C64.596 62.3607 64.7647 62.3693 64.9323 62.3818C65.361 62.4114 65.797 62.4291 66.232 62.4465C67.0165 62.4676 67.8075 62.4764 68.5861 62.4789C68.5556 62.5593 68.5233 62.6428 68.4912 62.7263L68.4902 62.7288C68.4577 62.8133 68.4252 62.8976 68.3943 62.9789C68.2234 63.4323 68.0606 63.8871 67.8981 64.3409C67.7945 64.6302 67.691 64.919 67.5857 65.2069C67.4032 65.7176 67.1994 66.2294 66.9946 66.7441C66.9174 66.9379 66.8401 67.132 66.7638 67.3267C66.704 67.4591 66.6451 67.5926 66.5861 67.7262C66.4066 68.1335 66.2261 68.5425 66.0163 68.9317C65.9001 69.1536 65.7781 69.373 65.6573 69.5903L65.6565 69.5918C65.5977 69.6973 65.5393 69.8025 65.4819 69.9074C65.4168 70.0265 65.3486 70.1433 65.2805 70.2601C65.1443 70.4938 65.008 70.7275 64.896 70.9808C64.6249 71.5875 64.8405 72.4414 65.3517 72.8652C65.3517 72.8652 65.3639 72.8716 65.3667 72.8809C65.9053 73.3268 66.6163 73.4732 67.2679 73.1673C68.4305 72.6294 69.5147 71.9269 70.59 71.2301C70.8382 71.0692 71.0858 70.9087 71.334 70.7506C71.7894 70.4594 72.2467 70.1712 72.704 69.8832C73.754 69.2216 74.8033 68.5606 75.8261 67.8631C76.0631 67.7018 76.3005 67.5408 76.538 67.3795L76.5412 67.3773C77.8078 66.5178 79.0764 65.6568 80.3129 64.7623C81.4933 63.9086 82.6556 63.0357 83.8193 62.1617L83.8217 62.16C84.1552 61.9095 84.4889 61.6588 84.8233 61.4085C84.853 61.389 84.8806 61.3701 84.9079 61.3512C84.9352 61.3326 84.9626 61.3138 84.9923 61.2943C85.7715 60.9382 86.1627 60.028 85.9093 59.2166C85.6296 58.3213 84.6447 57.7898 83.7429 58.0816L83.631 58.1166C83.5564 58.1399 83.4725 58.1661 83.395 58.18L83.3204 58.2035C83.2551 58.06 83.1776 57.9103 83.0751 57.7785C82.7376 57.321 82.3187 56.9299 81.9025 56.548C81.0581 55.778 80.2136 55.008 79.4071 54.1956C78.826 53.5479 78.2759 52.901 77.7264 52.2231L77.6035 52.0552C77.125 51.4018 76.6409 50.7408 76.2072 50.0467C76.1275 49.9204 76.0486 49.7932 75.9697 49.6658C75.6261 49.1115 75.2801 48.5531 74.8575 48.0527C74.2257 47.3083 73.1341 47.025 72.2832 47.5775C71.2853 48.2166 71.2706 49.644 71.2938 50.7013C71.3011 51.1396 71.3246 51.5769 71.3477 52.0129C71.3796 52.6099 71.4114 53.2052 71.4019 53.7996C71.3704 54.3212 71.3144 54.8301 71.2369 55.3354C71.1307 55.8803 71.0124 56.4188 70.8632 56.9567C70.6888 57.5128 70.4778 58.0496 70.2481 58.5921C70.2143 58.6641 70.1828 58.7354 70.1514 58.8066C70.1199 58.8778 70.0884 58.9491 70.0545 59.021C68.6079 59.0431 67.159 59.0248 65.7166 58.9944C65.4798 58.9767 65.2422 58.9644 65.0047 58.9521C64.5799 58.9303 64.1557 58.9085 63.7384 58.8549C63.3963 58.8083 63.0566 58.761 62.7168 58.7135L62.7148 58.7133C62.3757 58.666 62.0365 58.6187 61.6951 58.5722C61.5017 58.5356 61.308 58.4992 61.1141 58.4629L61.111 58.4624C59.8124 58.219 58.5071 57.9744 57.229 57.6438C56.9881 57.5828 56.7468 57.5238 56.5059 57.4649C55.9685 57.3336 55.4324 57.2027 54.9041 57.0498L54.9005 57.0487C54.1581 56.831 53.4155 56.6133 52.6824 56.3927L52.3051 56.2644C51.8393 56.1061 51.3791 55.9497 50.917 55.7876C51.3156 55.5619 51.7021 55.3234 52.094 55.0816L52.2268 54.9997C54.4504 53.5988 56.4665 51.8942 58.2187 49.9342C59.0173 49.0502 59.7494 48.0845 60.4477 47.1089C61.2446 45.99 61.975 44.7895 62.527 43.5422C63.4982 41.3759 63.8643 39.0097 63.832 36.645C63.8049 34.0026 63.0573 31.3804 62.0807 28.9423C61.0896 26.4575 59.5679 24.2409 57.8045 22.233C56.1349 20.3286 54.2099 18.6884 51.9965 17.4352C50.6215 16.6558 49.1603 16.068 47.6996 15.4803L47.4436 15.3773C45.8058 14.7221 44.0668 14.2009 42.3329 13.893L42.3317 13.8927C41.7808 13.7989 41.2297 13.7051 40.6852 13.5991C39.5919 13.4084 38.4839 13.3348 37.3836 13.3511C34.9141 13.3754 32.4441 14.0856 30.2659 15.2062C28.0784 16.3297 26.2208 17.9847 24.9174 20.0705C23.6269 22.1319 22.9541 24.5325 22.7323 26.9355C22.5497 28.9066 22.781 30.8917 23.1089 32.8262C23.2924 33.9051 23.5318 34.9665 23.8115 36.0255C24.2234 37.6061 24.8784 39.0802 25.5455 40.5606C26.5006 42.6676 27.873 44.6033 29.4728 46.2838C30.2646 47.1219 31.1203 47.8904 31.9791 48.6614C32.1486 48.8136 32.3183 48.9659 32.4875 49.1188C32.9675 49.5544 33.4814 49.9639 33.9911 50.37C34.1941 50.5317 34.3966 50.6931 34.5959 50.8553C35.0767 51.2555 35.5888 51.6151 36.1018 51.9754C36.3712 52.1645 36.6407 52.3538 36.9061 52.5492C37.1617 52.7318 37.4368 52.8983 37.7088 53.0629C37.8293 53.1359 37.9492 53.2085 38.0665 53.282C38.1966 53.366 38.3262 53.4509 38.4556 53.5359C38.7726 53.7439 39.0887 53.9513 39.4099 54.1417C39.6801 54.2979 39.9495 54.46 40.2192 54.6225C40.6723 54.8954 41.1268 55.169 41.5889 55.4161C41.2762 55.4625 40.9598 55.4999 40.6441 55.5372C39.4895 55.6419 38.3449 55.7129 37.1897 55.6848C36.1091 55.6335 35.0484 55.5145 33.9824 55.3459C34.013 55.3527 34.0431 55.3579 34.0725 55.3631C34.1171 55.3708 34.1602 55.3783 34.201 55.3903C33.0673 55.202 31.9472 54.9582 30.834 54.6713C30.4665 54.5763 30.1008 54.4782 29.7349 54.3801C29.369 54.282 29.0031 54.1839 28.6357 54.0889C28.4525 54.0308 28.2691 53.9728 28.0855 53.9146C26.4132 53.3858 24.7305 52.8538 23.1287 52.1551C22.2773 51.7558 21.4485 51.2982 20.6418 50.8132C18.7955 49.6776 17.0648 48.3816 15.3363 47.0872C15.1432 46.9426 14.9501 46.798 14.7568 46.6537C13.494 45.6254 12.2818 44.5302 11.1296 43.365C10.1511 42.3298 9.22923 41.2463 8.37025 40.102C8.39443 40.1304 8.41628 40.1593 8.43811 40.1884C8.45996 40.2173 8.4818 40.2463 8.50599 40.2745C7.96985 39.5413 7.48035 38.7935 7.04097 38.0096C6.62023 37.2199 6.24615 36.4155 5.91285 35.5779C5.57198 34.6506 5.27774 33.7088 5.02721 32.743L5.01848 32.715L5.01237 32.6944L5.01264 32.6964L5.01146 32.6912C5.00477 32.6671 4.99938 32.6436 4.994 32.6202C4.98687 32.5892 4.97973 32.5582 4.96954 32.5256C4.97539 32.5443 4.98123 32.563 4.98673 32.5819C4.72376 31.4041 4.56744 30.2199 4.41 29.0273L4.40332 28.9767C4.31659 27.6834 4.23573 26.4087 4.26324 25.1206C4.29946 24.1882 4.38521 23.2504 4.52634 22.326C4.63423 21.6884 4.77299 21.0514 4.9549 20.4213C5.09598 19.9884 5.26152 19.5682 5.43642 19.145C5.69699 18.603 5.98203 18.0738 6.27932 17.5511C6.57544 17.09 6.8803 16.6571 7.20672 16.2276C7.83625 15.4577 8.5019 14.7379 9.20719 14.0467C9.20252 14.0482 9.19859 14.052 9.19467 14.0558C9.19206 14.0583 9.18943 14.0608 9.18659 14.0627L9.18215 14.0649L9.22947 14.0193C9.25159 13.9919 9.27367 13.9646 9.29869 13.9466C9.29869 13.9466 9.30804 13.9436 9.30512 13.9343C9.30875 13.9307 9.31189 13.9274 9.31468 13.9244L9.31973 13.9186L9.32332 13.9146L9.32088 13.9191C9.72811 13.5395 10.1544 13.1729 10.5812 12.8059C10.7773 12.6372 10.9737 12.4683 11.1686 12.2979C11.3755 12.1151 11.5983 11.9507 11.8178 11.7888C11.9215 11.7123 12.0246 11.6363 12.1251 11.5589C12.3795 11.3723 12.6365 11.1691 12.8834 10.974L12.9906 10.8893C13.8673 10.2879 14.762 9.71161 15.6927 9.1854C17.9037 7.99092 20.2414 7.03745 22.5621 6.09088C22.7876 5.99893 23.0128 5.90704 23.2378 5.81501C23.3587 5.76877 23.4791 5.72226 23.5993 5.67584L23.6012 5.67508C24.062 5.4971 24.5193 5.32042 24.9899 5.16531C25.7049 4.93165 26.4202 4.69803 27.1289 4.47661C28.0242 4.19694 28.5464 3.2149 28.2639 2.31032C27.9813 1.40574 27.0022 0.892783 26.0976 1.17537C25.88 1.24332 25.6596 1.30969 25.4379 1.3764L25.4364 1.37685C25.2118 1.44441 24.9861 1.51234 24.7611 1.58263L24.6619 1.61681L24.6601 1.61738C24.3657 1.71877 24.0181 1.83843 23.6753 1.97305ZM4.98673 32.5819L4.99978 32.6398L5.01146 32.6912L5.01237 32.6944C5.0069 32.6559 4.99748 32.6186 4.98673 32.5819ZM58.5029 43.7824C58.5169 43.7588 58.5312 43.735 58.5468 43.7108L58.5029 43.7824ZM41.3877 51.2635C42.4029 51.853 43.4139 52.4401 44.4595 52.9736C45.1909 53.349 45.9231 53.6936 46.6894 54.0172C47.3934 53.7153 48.0888 53.3854 48.7632 53.0213C49.8438 52.4175 50.8761 51.7573 51.8815 51.044C51.8779 51.0509 51.8705 51.0557 51.8619 51.0613C51.8551 51.0657 51.8477 51.0705 51.8407 51.0772L51.9158 51.023C51.9199 51.0154 51.9249 51.0114 51.9319 51.0059C51.9363 51.0024 51.9413 50.9985 51.9473 50.9926C52.8188 50.3418 53.654 49.6407 54.4438 48.8924C55.2341 48.1133 55.9698 47.2898 56.6692 46.4162C56.6489 46.4336 56.6305 46.4531 56.6133 46.4733L56.5475 46.5574C56.5407 46.5663 56.5338 46.575 56.527 46.5834L56.5475 46.5574L56.5625 46.5376C56.5788 46.5161 56.5954 46.4943 56.6133 46.4733C57.2844 45.6135 57.92 44.7284 58.4907 43.8025C58.8258 43.241 59.1384 42.6677 59.4182 42.0772C59.5996 41.6419 59.753 41.2152 59.8941 40.7823C60.0293 40.3306 60.1337 39.8783 60.2164 39.4225C60.3156 38.757 60.3745 38.0937 60.4119 37.427C60.4172 36.8214 60.4038 36.2217 60.3473 35.615C60.2681 34.9027 60.1424 34.205 59.9856 33.5069C59.738 32.5503 59.4408 31.5991 59.0971 30.6626C58.7815 29.8816 58.4161 29.073 58.0196 28.3276C57.6309 27.6404 57.2136 26.9928 56.7591 26.357C56.0446 25.4133 55.2894 24.5028 54.4683 23.6436C53.8406 23.0107 53.1937 22.4144 52.5061 21.8513C51.967 21.4363 51.4151 21.0457 50.8346 20.6948C49.9756 20.2058 49.0908 19.7656 48.1746 19.3558C48.1793 19.3591 48.1839 19.3623 48.1885 19.3651L48.2942 19.4106L48.279 19.4052C48.2455 19.3936 48.218 19.384 48.1885 19.3651C46.8733 18.8012 45.5253 18.2874 44.1551 17.8582C44.1933 17.8665 44.2293 17.8757 44.264 17.8852C43.3417 17.6222 42.4077 17.3839 41.4693 17.2232C41.2266 17.1816 40.986 17.1393 40.7454 17.0969L40.7441 17.0966L40.7427 17.0964C40.5022 17.0541 40.2617 17.0118 40.0188 16.9701C39.4238 16.9001 38.8287 16.8302 38.2266 16.8032C37.6828 16.7992 37.1233 16.8102 36.5661 16.8614C36.0054 16.9342 35.4599 17.0227 34.9044 17.1451C34.3363 17.292 33.7766 17.4667 33.2165 17.6724C32.6622 17.8967 32.1289 18.1554 31.6015 18.4329C31.1578 18.684 30.7387 18.948 30.3285 19.2399C29.9898 19.4993 29.6664 19.7743 29.358 20.0651C29.0683 20.3501 28.8002 20.6386 28.5408 20.9551C28.303 21.275 28.0745 21.5921 27.8546 21.9371C27.6408 22.3008 27.442 22.6801 27.2554 23.066C27.0549 23.5381 26.8823 24.0013 26.7278 24.4898C26.5657 25.0522 26.4311 25.6367 26.3273 26.2218C26.2463 26.7487 26.1931 27.2669 26.1645 27.7978C26.1429 28.6132 26.1801 29.4205 26.2512 30.2376C26.413 31.6404 26.6805 33.0206 26.9881 34.3984C27.238 35.3951 27.5381 36.3557 27.9064 37.3051C28.2781 38.233 28.7151 39.1405 29.1836 40.0177C29.6201 40.7923 30.088 41.5366 30.609 42.2542C31.0583 42.8405 31.542 43.4059 32.0479 43.9439C33.5486 45.4711 35.1879 46.8524 36.8495 48.2066L37.9194 48.9777C38.0168 49.0493 38.114 49.1229 38.2112 49.1965C38.4458 49.3739 38.6815 49.5522 38.9253 49.7075C39.3144 49.9579 39.7063 50.2074 40.0999 50.458C40.4319 50.6695 40.7653 50.8818 41.0992 51.096L41.3877 51.2635Z" fill="#34C759"/>
</g>
</g>
<defs>
<clipPath id="clip0_4322_23461">
<rect width="85.83" height="91.47" fill="white" transform="translate(0.730011 0.339844)"/>
</clipPath>
<clipPath id="clip1_4322_23461">
<rect width="85.83" height="73.5686" fill="white" transform="translate(0.730011 0.339844)"/>
</clipPath>
</defs>
</svg>
