<svg width="187" height="57" viewBox="0 0 187 57" fill="none" xmlns="http://www.w3.org/2000/svg">
<mask id="mask0_4322_23989" style="mask-type:luminance" maskUnits="userSpaceOnUse" x="0" y="0" width="187" height="57">
<path d="M186.189 0.341797H0.970657V56.8118H186.189V0.341797Z" fill="white"/>
</mask>
<g mask="url(#mask0_4322_23989)">
<path d="M58.8351 33.3634C58.982 34.2748 59.5788 35.0496 60.6255 35.6877C61.6722 36.3075 63.1871 36.6174 65.1703 36.6174C66.6577 36.6174 67.9523 36.4624 69.0541 36.1525C70.156 35.8426 70.7068 35.3686 70.7068 34.7306C70.7068 33.9467 69.7794 33.3543 67.9248 32.9532L60.8184 31.3399C56.9804 30.4649 55.0615 28.7331 55.0615 26.1446C55.0615 24.2487 55.9613 22.8268 57.7609 21.8789C59.5605 20.9309 61.8191 20.457 64.5369 20.457C67.4382 20.457 69.8254 21.0039 71.6985 22.0977C73.5898 23.1732 74.6457 24.7044 74.866 26.6914L70.1284 26.8828C69.9631 26.1172 69.3847 25.461 68.3931 24.9141C67.4198 24.3672 66.0701 24.0937 64.3441 24.0937C63.0953 24.0937 62.067 24.2487 61.2591 24.5586C60.4694 24.8685 60.0746 25.2969 60.0746 25.8438C60.0746 26.6094 60.9652 27.1927 62.7465 27.5938L69.3296 29.0157C71.478 29.4897 73.0756 30.1277 74.1223 30.9297C75.1873 31.7318 75.7199 32.8621 75.7199 34.3205C75.7199 36.3075 74.7742 37.7932 72.8828 38.7775C71.0098 39.7619 68.439 40.2541 65.1703 40.2541C58.1741 40.2541 54.4832 38.0028 54.0975 33.5001L58.8351 33.3634Z" fill="white"/>
<path d="M90.0305 25.2696C92.2891 25.2696 93.9969 25.862 95.1537 27.047C96.3289 28.2318 96.9166 29.9637 96.9166 32.2423V39.926H92.1238V33.6915C92.1238 32.215 91.8116 31.0939 91.1873 30.3283C90.5814 29.5625 89.5897 29.1798 88.2125 29.1798C86.6516 29.1798 85.4488 29.6355 84.6042 30.547C83.7778 31.4402 83.3647 32.6616 83.3647 34.2111V39.926H78.572V19.8008H83.3647V28.3321C84.7787 26.2904 87.0006 25.2696 90.0305 25.2696Z" fill="white"/>
<path d="M109.398 25.2692C115.237 25.3057 118.158 27.5934 118.158 32.1325V39.9257H113.695V36.9998C112.189 39.1691 109.747 40.2537 106.368 40.2537C104.201 40.2537 102.558 39.8527 101.437 39.0506C100.317 38.2302 99.7573 37.1639 99.7573 35.8513C99.7573 34.393 100.446 33.3357 101.823 32.6795C103.2 32.005 105.266 31.5857 108.021 31.4216L113.364 31.0662C113.346 30.2823 113.006 29.6625 112.345 29.2067C111.684 28.7327 110.702 28.4958 109.398 28.4958C107.139 28.4958 105.789 29.0336 105.349 30.1091H100.859C100.988 28.9242 101.483 27.958 102.346 27.2106C103.228 26.4633 104.247 25.9528 105.404 25.6794C106.579 25.3877 107.91 25.251 109.398 25.2692ZM107.663 37.0271C109.37 37.0271 110.747 36.7264 111.794 36.1247C112.841 35.5232 113.364 34.8396 113.364 34.074V33.7185L108.654 34.0192C107.259 34.1105 106.212 34.2745 105.514 34.5115C104.835 34.7485 104.495 35.113 104.495 35.6052C104.495 36.5532 105.551 37.0271 107.663 37.0271Z" fill="white"/>
<path d="M131.898 25.2695C132.578 25.2695 133.33 25.3516 134.156 25.5156V29.672C133.128 29.5079 132.164 29.4259 131.264 29.4259C129.575 29.4259 128.336 29.8634 127.546 30.7383C126.756 31.6133 126.361 33.0444 126.361 35.0314V39.926H121.568L121.597 25.5977H126.031V29.1798C127.187 26.5729 129.143 25.2695 131.898 25.2695Z" fill="white"/>
<path d="M137.113 39.9259V25.5977H141.905V39.9259H137.113Z" fill="white"/>
<path d="M156.786 25.2695C159.045 25.2695 160.752 25.862 161.91 27.0469C163.084 28.2318 163.672 29.9637 163.672 32.2423V39.926H158.88V33.6915C158.88 32.215 158.567 31.0938 157.943 30.3282C157.337 29.5625 156.345 29.1798 154.969 29.1798C153.407 29.1798 152.204 29.6355 151.36 30.547C150.534 31.4402 150.12 32.6615 150.12 34.211V39.926H145.327V25.5977H149.789V28.879C151.13 26.4727 153.462 25.2695 156.786 25.2695Z" fill="white"/>
<path d="M181.638 25.5977H186.073V36.836C186.073 39.9715 185.302 42.232 183.759 43.6174C182.216 45.0211 179.829 45.7229 176.597 45.7229C174.081 45.7229 172.043 45.2945 170.482 44.4378C168.94 43.581 168.058 42.2866 167.838 40.5548H172.411C172.98 41.6122 174.375 42.1408 176.597 42.1408C178.268 42.1408 179.462 41.8127 180.178 41.1565C180.913 40.5002 181.28 39.4702 181.28 38.0666V36.9728C179.848 38.577 177.736 39.3791 174.944 39.3791C172.392 39.3791 170.344 38.7411 168.802 37.465C167.26 36.1707 166.488 34.4571 166.488 32.3243C166.488 30.1733 167.26 28.4597 168.802 27.1836C170.363 25.9076 172.429 25.2695 174.999 25.2695C178.103 25.2695 180.315 26.2084 181.638 28.086V25.5977ZM176.431 36.0978C177.993 36.0978 179.241 35.7515 180.178 35.0587C181.133 34.366 181.611 33.5092 181.611 32.4884C181.611 31.4494 181.142 30.5835 180.206 29.8907C179.27 29.198 178.011 28.8516 176.431 28.8516C174.853 28.8516 173.585 29.198 172.631 29.8907C171.695 30.5835 171.226 31.4494 171.226 32.4884C171.226 33.5092 171.695 34.366 172.631 35.0587C173.585 35.7515 174.853 36.0978 176.431 36.0978Z" fill="white"/>
<path d="M142.2 21.9058C142.2 23.0544 141 23.9856 139.52 23.9856C138.039 23.9856 136.839 23.0544 136.839 21.9058C136.839 20.7573 138.039 19.8262 139.52 19.8262C141 19.8262 142.2 20.7573 142.2 21.9058Z" fill="white"/>
<path fill-rule="evenodd" clip-rule="evenodd" d="M40.355 35.8475C39.9641 36.276 39.2213 36.2931 38.6841 35.8475C38.0953 35.3589 38.1952 34.813 38.3421 33.8833L39.1134 29.18H43.851L44.4295 25.5979H39.6643L40.2152 22.0978H35.7254L35.3398 24.5041C35.2663 24.9234 35.1102 25.2242 34.8716 25.4064C34.6512 25.5705 34.2931 25.6525 33.7973 25.6525H30.7398L30.1889 29.18H34.2931L33.4392 34.6216C33.1087 36.6633 33.3749 38.1125 34.238 38.9694C34.7781 39.5057 35.5772 39.8741 36.6352 40.0746L28.4248 49.5331C24.3415 54.2372 22.2998 56.5892 19.5524 56.7972C16.8048 57.0051 14.4243 54.9879 9.66339 50.9535L8.33736 49.8298C3.57642 45.7953 1.19596 43.7781 0.985437 41.0633C0.774918 38.3487 2.81656 35.9966 6.89985 31.2927C7.45699 30.6508 7.7445 30.3513 8.39103 29.6993C9.03754 29.0474 10.4527 29.18 10.4527 29.18L8.74499 39.9265H13.5377L15.2455 29.18H19.6251L20.2036 25.5979H15.824L15.8791 25.2697C15.9892 24.5587 16.2555 24.0392 16.6779 23.7111C17.1186 23.3647 17.8163 23.1915 18.7712 23.1915C19.212 23.1915 19.8088 23.2279 20.5616 23.3009L21.1401 19.664C20.0199 19.5365 19.0284 19.4727 18.1653 19.4727C16.0534 19.4727 14.4284 19.8828 13.2898 20.7032C12.1697 21.5235 11.4444 22.9545 11.1138 24.9963L11.0312 25.5979C11.0312 25.5979 10.0698 25.6639 9.19311 25.1853C7.94635 24.5045 7.14858 23.7348 6.45275 22.9418C5.32715 21.6589 4.72545 20.5159 4.62433 19.212C4.41382 16.4974 6.45546 14.1453 10.5387 9.44133L12.1193 7.62044C16.2026 2.91642 18.2443 0.564402 20.9918 0.3564C23.7393 0.148401 26.1199 2.16564 30.8808 6.20011L41.0764 14.84C45.8373 18.8744 48.2178 20.8918 48.4283 23.6064C48.6388 26.3211 46.5972 28.6731 42.514 33.3771L40.9333 35.198C40.593 35.59 40.6838 35.4871 40.355 35.8475ZM21.3329 39.9265L23.6191 25.5979H28.4118L26.1256 39.9265H21.3329ZM26.5499 23.9846C28.0304 23.9846 29.2306 23.0536 29.2306 21.905C29.2306 20.7564 28.0304 19.8253 26.5499 19.8253C25.0695 19.8253 23.8693 20.7564 23.8693 21.905C23.8693 23.0536 25.0695 23.9846 26.5499 23.9846Z" fill="url(#paint0_linear_4322_23989)"/>
<path fill-rule="evenodd" clip-rule="evenodd" d="M40.355 35.8475C39.9641 36.276 39.2213 36.2931 38.6841 35.8475C38.0953 35.3589 38.1952 34.813 38.3421 33.8833L39.1134 29.18H43.851L44.4295 25.5979H39.6643L40.2152 22.0978H35.7254L35.3398 24.5041C35.2663 24.9234 35.1102 25.2242 34.8716 25.4064C34.6512 25.5705 34.2931 25.6525 33.7973 25.6525H30.7398L30.1889 29.18H34.2931L33.4392 34.6216C33.1087 36.6633 33.3749 38.1125 34.238 38.9694C34.7781 39.5057 35.5772 39.8741 36.6352 40.0746L28.4248 49.5331C24.3415 54.2372 22.2998 56.5892 19.5524 56.7972C16.8048 57.0051 14.4243 54.9879 9.66339 50.9535L8.33736 49.8298C3.57642 45.7953 1.19596 43.7781 0.985437 41.0633C0.774918 38.3487 2.81656 35.9966 6.89985 31.2927C7.45699 30.6508 7.7445 30.3513 8.39103 29.6993C9.03754 29.0474 10.4527 29.18 10.4527 29.18L8.74499 39.9265H13.5377L15.2455 29.18H19.6251L20.2036 25.5979H15.824L15.8791 25.2697C15.9892 24.5587 16.2555 24.0392 16.6779 23.7111C17.1186 23.3647 17.8163 23.1915 18.7712 23.1915C19.212 23.1915 19.8088 23.2279 20.5616 23.3009L21.1401 19.664C20.0199 19.5365 19.0284 19.4727 18.1653 19.4727C16.0534 19.4727 14.4284 19.8828 13.2898 20.7032C12.1697 21.5235 11.4444 22.9545 11.1138 24.9963L11.0312 25.5979C11.0312 25.5979 10.0698 25.6639 9.19311 25.1853C7.94635 24.5045 7.14858 23.7348 6.45275 22.9418C5.32715 21.6589 4.72545 20.5159 4.62433 19.212C4.41382 16.4974 6.45546 14.1453 10.5387 9.44133L12.1193 7.62044C16.2026 2.91642 18.2443 0.564402 20.9918 0.3564C23.7393 0.148401 26.1199 2.16564 30.8808 6.20011L41.0764 14.84C45.8373 18.8744 48.2178 20.8918 48.4283 23.6064C48.6388 26.3211 46.5972 28.6731 42.514 33.3771L40.9333 35.198C40.593 35.59 40.6838 35.4871 40.355 35.8475ZM21.3329 39.9265L23.6191 25.5979H28.4118L26.1256 39.9265H21.3329ZM26.5499 23.9846C28.0304 23.9846 29.2306 23.0536 29.2306 21.905C29.2306 20.7564 28.0304 19.8253 26.5499 19.8253C25.0695 19.8253 23.8693 20.7564 23.8693 21.905C23.8693 23.0536 25.0695 23.9846 26.5499 23.9846Z" fill="url(#paint1_linear_4322_23989)"/>
<path d="M10.4527 29.1798L8.74498 39.926H13.5377L15.2454 29.1798H19.6251L20.2035 25.5977H15.8239L15.879 25.2695C15.9891 24.5586 16.2554 24.0391 16.6778 23.711C17.1185 23.3646 17.8162 23.1914 18.7711 23.1914C19.2119 23.1914 19.8087 23.2278 20.5615 23.3008L21.14 19.664C20.0199 19.5365 19.0283 19.4727 18.1652 19.4727C16.0534 19.4727 14.4283 19.8827 13.2898 20.7031C12.1697 21.5234 11.4443 22.9544 11.1138 24.9961L11.0312 25.5977L10.4527 29.1798Z" fill="white"/>
<path d="M23.6191 25.5977L21.3329 39.9259H26.1256L28.4118 25.5977H23.6191Z" fill="white"/>
<path d="M29.2306 21.9058C29.2306 23.0544 28.0304 23.9854 26.5499 23.9854C25.0695 23.9854 23.8693 23.0544 23.8693 21.9058C23.8693 20.7572 25.0695 19.8262 26.5499 19.8262C28.0304 19.8262 29.2306 20.7572 29.2306 21.9058Z" fill="white"/>
<path d="M40.355 35.8471C39.964 36.2756 39.2212 36.2927 38.6841 35.8471C38.107 35.3684 38.1914 34.8343 38.3334 33.9379L38.3421 33.8829L39.1133 29.1797H43.851L44.4294 25.5977H39.6643L40.2152 22.0977H35.7253L35.3398 24.5039C35.2662 24.9232 35.1102 25.224 34.8715 25.4063C34.6512 25.5704 34.2931 25.6524 33.7973 25.6524H30.7398L30.1889 29.1797H34.2931L33.4391 34.6212C33.1087 36.6629 33.3749 38.1121 34.2379 38.969C34.7781 39.5052 35.5772 39.8736 36.6352 40.0742L40.355 35.8471Z" fill="white"/>
</g>
<defs>
<linearGradient id="paint0_linear_4322_23989" x1="7.63862" y1="42.0832" x2="6.17863" y2="17.0658" gradientUnits="userSpaceOnUse">
<stop offset="0.000910271" stop-color="#F11712"/>
<stop offset="0.567758" stop-color="#D400F7"/>
<stop offset="1" stop-color="#0054F7"/>
</linearGradient>
<linearGradient id="paint1_linear_4322_23989" x1="7.63862" y1="42.0832" x2="6.17863" y2="17.0658" gradientUnits="userSpaceOnUse">
<stop offset="0.000910271" stop-color="#F11712"/>
<stop offset="0.567758" stop-color="#D400F7"/>
<stop offset="1" stop-color="#0054F7"/>
</linearGradient>
</defs>
</svg>
