<svg width="19" height="20" viewBox="0 0 19 20" fill="none" xmlns="http://www.w3.org/2000/svg">
<path d="M9.41001 1.73242C6.90885 1.73242 4.89501 3.74625 4.89501 6.24742V6.99992H3.39001V17.5349H15.43V6.99992H13.9251V6.24742C13.9251 3.74625 11.9111 1.73242 9.41001 1.73242ZM9.41001 3.23742C11.1228 3.23742 12.42 4.53458 12.42 6.24742V6.99992H6.40001V6.24742C6.40001 4.53458 7.69718 3.23742 9.41001 3.23742ZM9.41001 10.7624C10.2378 10.7624 10.915 11.4397 10.915 12.2674C10.915 13.0952 10.2378 13.7725 9.41001 13.7725C8.58226 13.7725 7.90501 13.0952 7.90501 12.2674C7.90501 11.4397 8.58226 10.7624 9.41001 10.7624Z" fill="#6D7280"/>
</svg>
