<svg width="21" height="19" viewBox="0 0 21 19" fill="none" xmlns="http://www.w3.org/2000/svg">
<path d="M9.31219 0C8.21764 0 7.28507 0.714284 6.93122 1.69313H0V3.38625H6.93122C7.28507 4.36509 8.21764 5.07937 9.31219 5.07937C10.4067 5.07937 11.3393 4.36509 11.6932 3.38625H20.3175V1.69313H11.6932C11.3393 0.714284 10.4067 0 9.31219 0ZM9.31219 1.69313C9.78841 1.69313 10.1587 2.06349 10.1587 2.53969C10.1587 3.01588 9.78841 3.38625 9.31219 3.38625C8.83597 3.38625 8.46562 3.01588 8.46562 2.53969C8.46562 2.06349 8.83597 1.69313 9.31219 1.69313ZM15.2381 6.7725C14.1436 6.7725 13.211 7.48677 12.8571 8.46562H0V10.1587H12.8571C13.211 11.1376 14.1436 11.8519 15.2381 11.8519C16.3327 11.8519 17.2652 11.1376 17.6191 10.1587H20.3175V8.46562H17.6191C17.2652 7.48677 16.3327 6.7725 15.2381 6.7725ZM15.2381 8.46562C15.7143 8.46562 16.0847 8.83597 16.0847 9.31219C16.0847 9.78841 15.7143 10.1587 15.2381 10.1587C14.7619 10.1587 14.3916 9.78841 14.3916 9.31219C14.3916 8.83597 14.7619 8.46562 15.2381 8.46562ZM5.92594 13.545C4.83135 13.545 3.89882 14.2593 3.54498 15.2381H0V16.9312H3.54498C3.89882 17.9101 4.83135 18.6244 5.92594 18.6244C7.02052 18.6244 7.95306 17.9101 8.30692 16.9312H20.3175V15.2381H8.30692C7.95306 14.2593 7.02052 13.545 5.92594 13.545ZM5.92594 15.2381C6.40213 15.2381 6.7725 15.6085 6.7725 16.0847C6.7725 16.5609 6.40213 16.9312 5.92594 16.9312C5.44974 16.9312 5.07937 16.5609 5.07937 16.0847C5.07937 15.6085 5.44974 15.2381 5.92594 15.2381Z" fill="white"/>
</svg>
