<svg width="28" height="29" viewBox="0 0 28 29" fill="none" xmlns="http://www.w3.org/2000/svg">
<path d="M8.20802 3.50781C7.76489 3.50781 7.32838 3.66654 6.96463 3.95755L6.91172 3.98401L6.88526 4.01046L4.23975 6.73534L4.26621 6.76178C3.44941 7.51576 3.19809 8.6434 3.55193 9.61893C3.55523 9.62555 3.54862 9.63878 3.55193 9.64539C4.26952 11.699 6.10484 15.6639 9.6895 19.2486C13.2874 22.8465 17.3053 24.609 19.2927 25.3861H19.3191C20.3476 25.7301 21.462 25.4854 22.2557 24.8042L24.9277 22.1322C25.6287 21.4311 25.6287 20.2142 24.9277 19.5131L21.4885 16.074L21.462 16.021C20.761 15.32 19.5176 15.32 18.8165 16.021L17.1234 17.7141C16.5116 17.4199 15.0532 16.6659 13.6578 15.3333C12.2722 14.0105 11.5645 12.4893 11.3033 11.8941L12.9964 10.201C13.7073 9.48996 13.7206 8.30611 12.9699 7.60835L12.9964 7.5819L12.9171 7.50253L9.53077 4.01046L9.50432 3.98401L9.45141 3.95755C9.08765 3.66654 8.65114 3.50781 8.20802 3.50781ZM8.20802 5.20094C8.27085 5.20094 8.33368 5.2307 8.3932 5.2803L11.7795 8.74592L11.8588 8.82529C11.8522 8.81867 11.9084 8.90796 11.8059 9.01047L9.6895 11.1269L9.29268 11.4973L9.47786 12.0264C9.47786 12.0264 10.4501 14.6288 12.4938 16.5766L12.6789 16.7354C14.6465 18.531 16.9647 19.5131 16.9647 19.5131L17.4937 19.7512L20.007 17.238C20.1525 17.0925 20.1261 17.0925 20.2716 17.238L23.7372 20.7036C23.8827 20.8491 23.8827 20.7962 23.7372 20.9417L21.1445 23.5343C20.7543 23.8683 20.341 23.9377 19.8483 23.7724C17.9303 23.0185 14.2034 21.3816 10.88 18.0581C7.5301 14.7083 5.78077 10.9086 5.13923 9.06338C5.01026 8.71947 5.10285 8.21021 5.40378 7.95227L5.45669 7.89936L8.02284 5.2803C8.08236 5.2307 8.14519 5.20094 8.20802 5.20094Z" fill="#0054F7"/>
<path d="M8.20807 5.20312C8.27089 5.20312 8.33373 5.23289 8.39325 5.28249L11.7795 8.74811L11.8589 8.82747C11.8523 8.82086 11.9085 8.91014 11.806 9.01266L9.68955 11.1291L9.29273 11.4994L9.47791 12.0285C9.47791 12.0285 10.4501 14.631 12.4938 16.5788L12.679 16.7376C14.6466 18.5332 16.9647 19.5153 16.9647 19.5153L17.4938 19.7534L20.007 17.2402C20.1525 17.0947 20.1261 17.0947 20.2716 17.2402L23.7372 20.7058C23.8827 20.8513 23.8827 20.7984 23.7372 20.9439L21.1446 23.5365C20.7544 23.8705 20.341 23.9399 19.8483 23.7746C17.9304 23.0207 14.2034 21.3838 10.88 18.0603C7.53015 14.7105 5.78081 10.9108 5.13928 9.06557C5.01031 8.72165 5.1029 8.21239 5.40382 7.95445L5.45674 7.90155L8.02288 5.28249C8.0824 5.23289 8.14524 5.20312 8.20807 5.20312Z" fill="#0054F7"/>
</svg>
