<svg width="37" height="37" viewBox="0 0 37 37" fill="none" xmlns="http://www.w3.org/2000/svg">
<path d="M12.6945 9.23438C9.19053 9.23438 6.34167 12.1164 6.34167 15.5872C6.34167 16.7983 6.89093 17.8471 7.40048 18.6048C7.91003 19.3626 8.43282 19.8489 8.43282 19.8489L17.5915 29.034L18.2003 29.6429L18.8092 29.034L27.9678 19.8489C27.9678 19.8489 30.0589 18.0059 30.0589 15.5872C30.0589 12.1164 27.21 9.23438 23.7061 9.23438C20.7977 9.23438 18.9249 10.9847 18.2003 11.7226C17.4757 10.9847 15.6029 9.23438 12.6945 9.23438ZM12.6945 10.9285C15.2257 10.9285 17.565 13.3902 17.565 13.3902L18.2003 14.1049L18.8356 13.3902C18.8356 13.3902 21.1749 10.9285 23.7061 10.9285C26.2836 10.9285 28.3649 13.0428 28.3649 15.5872C28.3649 16.8941 26.7767 18.6578 26.7767 18.6578L18.2003 27.2341L9.62398 18.6578C9.62398 18.6578 9.21369 18.264 8.8034 17.6519C8.39312 17.0397 8.03577 16.2424 8.03577 15.5872C8.03577 13.0428 10.117 10.9285 12.6945 10.9285Z" fill="white"/>
</svg>
