<svg width="38" height="37" viewBox="0 0 38 37" fill="none" xmlns="http://www.w3.org/2000/svg">
<path d="M21.5514 7.54102C16.8827 7.54102 13.081 11.3428 13.081 16.0115C13.081 18.0397 13.7924 19.8993 14.9868 21.3585L8.23694 28.1083L9.45456 29.326L16.2044 22.5761C17.6636 23.7705 19.5232 24.4819 21.5514 24.4819C26.2201 24.4819 30.0219 20.6802 30.0219 16.0115C30.0219 11.3428 26.2201 7.54102 21.5514 7.54102ZM21.5514 9.23511C25.3036 9.23511 28.3278 12.2593 28.3278 16.0115C28.3278 19.7637 25.3036 22.7878 21.5514 22.7878C17.7992 22.7878 14.7751 19.7637 14.7751 16.0115C14.7751 12.2593 17.7992 9.23511 21.5514 9.23511Z" fill="white"/>
</svg>
