<svg width="15" height="15" viewBox="0 0 15 15" fill="none" xmlns="http://www.w3.org/2000/svg">
<mask id="mask0_4322_23955" style="mask-type:luminance" maskUnits="userSpaceOnUse" x="0" y="0" width="15" height="15">
<path d="M14.52 0.589844H0.970001V14.1398H14.52V0.589844Z" fill="white"/>
</mask>
<g mask="url(#mask0_4322_23955)">
<path d="M13.8169 1.01562L12.6145 1.51358L2.121 5.78872L0.942917 6.26238L2.09672 6.78463L6.18967 8.64285L8.0479 12.7358L8.57015 13.8896L9.04381 12.7115L13.3189 2.21801L13.8169 1.01562ZM11.8372 2.9953L8.52156 11.1205L7.10057 7.99915L7.01555 7.81697L6.83338 7.73196L3.71203 6.31097L11.8372 2.9953Z" fill="white"/>
<path d="M11.8372 2.99609L8.52155 11.1213L7.10056 7.99994L7.01553 7.81776L6.83336 7.73274L3.71202 6.31176L11.8372 2.99609Z" fill="white"/>
</g>
</svg>
