<svg width="28" height="28" viewBox="0 0 28 28" fill="none" xmlns="http://www.w3.org/2000/svg">
<path d="M9.45248 0.587891C7.59466 0.587891 6.06436 2.11819 6.06436 3.97602C6.06436 4.41455 6.37945 4.71914 6.53418 5.10539H0.41748V6.23477V13.011H1.54686V27.6929H26.3931V13.011H27.5225V5.10539H21.4058C21.5605 4.71914 21.8756 4.41455 21.8756 3.97602C21.8756 2.11819 20.3453 0.587891 18.4875 0.587891C16.5123 0.587891 15.1788 2.07573 14.2986 3.32753C14.0882 3.62681 14.1349 3.64048 13.97 3.9209C13.8051 3.64048 13.8517 3.62681 13.6413 3.32753C12.7612 2.07573 11.4276 0.587891 9.45248 0.587891ZM9.45248 2.84664C10.1596 2.84664 11.0848 3.61755 11.7929 4.6245C11.96 4.86224 11.9263 4.87918 12.0598 5.10539H9.45248C8.81438 5.10539 8.32311 4.61411 8.32311 3.97602C8.32311 3.33792 8.81438 2.84664 9.45248 2.84664ZM18.4875 2.84664C19.1256 2.84664 19.6169 3.33792 19.6169 3.97602C19.6169 4.61411 19.1256 5.10539 18.4875 5.10539H15.8802C16.0137 4.87918 15.9799 4.86224 16.1471 4.6245C16.8552 3.61755 17.7804 2.84664 18.4875 2.84664ZM2.67623 7.36414H9.45248H12.2914H12.8406V10.7523H2.67623V7.36414ZM15.0994 7.36414H15.6486H18.4875H25.2637V10.7523H15.0994V7.36414ZM3.80561 13.011H12.8406V25.4341H3.80561V13.011ZM15.0994 13.011H24.1344V25.4341H15.0994V13.011Z" fill="url(#paint0_linear_4322_23383)"/>
<defs>
<linearGradient id="paint0_linear_4322_23383" x1="-0.625045" y1="-1.67086" x2="33.148" y2="29.5042" gradientUnits="userSpaceOnUse">
<stop stop-color="white"/>
<stop offset="1" stop-color="white" stop-opacity="0"/>
</linearGradient>
</defs>
</svg>
