<svg width="32" height="30" viewBox="0 0 32 30" fill="none" xmlns="http://www.w3.org/2000/svg">
<path d="M9.75843 0.339844C8.7438 0.339844 7.73787 0.736932 6.97034 1.50446C5.43507 3.03973 5.43947 5.54558 6.97034 7.08086L8.06437 8.17488C8.06437 8.19691 8.06437 8.22345 8.06437 8.24547C8.06437 9.36163 8.31588 10.4204 8.73499 11.3865L1.49988 16.8217C0.785207 17.3599 0.321937 18.1539 0.194092 19.0451C0.0661337 19.9363 0.291105 20.8715 0.829365 21.5862C1.46904 22.4421 2.47927 22.9273 3.54687 22.9273C3.97919 22.9273 4.41592 22.8347 4.81741 22.6802C4.74242 23.1215 4.67624 23.5802 4.67624 24.0567C4.67624 25.4949 5.01596 26.7964 5.66445 27.8331C6.31293 28.8698 7.36291 29.7036 8.62906 29.7036C9.37026 29.7036 10.0143 29.4036 10.5702 28.9625C12.2289 29.5139 14.0554 29.7036 15.97 29.7036C17.8802 29.7036 19.7066 29.5095 21.3699 28.9625C21.9256 29.4036 22.5698 29.7036 23.3109 29.7036C24.5771 29.7036 25.6271 28.8698 26.2755 27.8331C26.924 26.7964 27.2637 25.4949 27.2637 24.0567C27.2637 23.5802 27.1976 23.1215 27.1226 22.6802C27.5241 22.8347 27.9652 22.9273 28.3931 22.9273C29.4607 22.9273 30.4709 22.4376 31.1107 21.5862C31.6489 20.8671 31.8694 19.9319 31.746 19.0451C31.618 18.1583 31.1592 17.3599 30.4401 16.8217L23.2051 11.3865C23.6241 10.4204 23.8756 9.36163 23.8756 8.24547C23.8756 8.22345 23.8756 8.19691 23.8756 8.17488L24.9698 7.08086C26.5005 5.54558 26.5049 3.03973 24.9698 1.50446C24.2021 0.736932 23.1962 0.339844 22.1816 0.339844C21.2904 0.339844 20.3993 0.661941 19.6758 1.25746C18.5729 0.670751 17.3023 0.339844 15.97 0.339844C14.6377 0.339844 13.3671 0.670751 12.2643 1.25746C11.5407 0.661941 10.6496 0.339844 9.75843 0.339844ZM9.75843 2.59859C9.96578 2.59859 10.1643 2.62943 10.3585 2.70453C9.58202 3.49419 8.95556 4.43823 8.55847 5.49262C7.89677 4.83092 7.89677 3.7544 8.55847 3.0927C8.88938 2.76179 9.32611 2.59859 9.75843 2.59859ZM15.97 2.59859C19.1022 2.59859 21.6169 5.11326 21.6169 8.24547C21.6169 9.14106 21.3831 9.96596 21.0169 10.716C20.8316 8.08668 18.6434 5.98672 15.97 5.98672C13.2965 5.98672 11.1084 8.08668 10.9232 10.716C10.5569 9.96596 10.3231 9.14106 10.3231 8.24547C10.3231 5.11326 12.8378 2.59859 15.97 2.59859ZM22.1816 2.59859C22.6139 2.59859 23.0506 2.76179 23.3815 3.0927C24.0432 3.7544 24.0432 4.83092 23.3815 5.49262C22.9844 4.43823 22.3581 3.49419 21.5816 2.70453C21.7757 2.62943 21.9742 2.59859 22.1816 2.59859ZM15.97 8.24547C17.5405 8.24547 18.7934 9.4984 18.7934 11.0689C18.7934 12.6394 17.5405 13.8923 15.97 13.8923C14.3995 13.8923 13.1466 12.6394 13.1466 11.0689C13.1466 9.4984 14.3995 8.24547 15.97 8.24547ZM15.97 9.37484C15.3479 9.37484 14.8406 9.88216 14.8406 10.5042C14.8406 11.1263 15.3479 11.6336 15.97 11.6336C16.5921 11.6336 17.0994 11.1263 17.0994 10.5042C17.0994 9.88216 16.5921 9.37484 15.97 9.37484ZM9.93495 13.3277C11.3863 15.0437 13.5569 16.1511 15.97 16.1511C18.3831 16.1511 20.5537 15.0437 22.0051 13.3277L29.0637 18.6216C29.3107 18.8069 29.4783 19.0539 29.5225 19.3628C29.5667 19.6716 29.4961 19.9627 29.3107 20.2098C29.1034 20.4877 28.7416 20.6686 28.3931 20.6686C28.1372 20.6686 27.9254 20.6112 27.7226 20.4568L26.7696 19.751L26.6638 19.6804C26.5359 19.5612 25.4727 18.604 23.7698 18.4451C23.6197 18.4187 23.4697 18.4098 23.3109 18.4098C22.0448 18.4098 20.9948 19.2437 20.3463 20.2803C19.6978 21.3171 19.3581 22.6186 19.3581 24.0567C19.3581 25.1463 19.5434 26.1787 19.9228 27.0566C18.7582 27.3301 17.4215 27.4448 15.97 27.4448C14.5185 27.4448 13.1819 27.3301 12.0172 27.0566C12.3965 26.1787 12.5819 25.1463 12.5819 24.0567C12.5819 22.6186 12.2422 21.3171 11.5937 20.2803C10.9452 19.2437 9.8952 18.4098 8.62906 18.4098C6.65265 18.4098 5.41293 19.5524 5.27628 19.6804L5.17034 19.751L4.21749 20.4568C4.01454 20.6112 3.79838 20.6686 3.54687 20.6686C3.19834 20.6686 2.8366 20.4833 2.62925 20.2098C2.44392 19.9583 2.37333 19.6672 2.41749 19.3628C2.46165 19.0583 2.62925 18.8069 2.87636 18.6216L9.93495 13.3277ZM8.62906 20.6686C8.92021 20.6686 9.27754 20.845 9.65261 21.445C10.0276 22.0451 10.3231 22.9979 10.3231 24.0567C10.3231 25.1155 10.0276 26.0684 9.65261 26.6684C9.27754 27.2684 8.92021 27.4448 8.62906 27.4448C8.3379 27.4448 7.98057 27.2684 7.60562 26.6684C7.23055 26.0684 6.93499 25.1155 6.93499 24.0567C6.93499 22.9979 7.23055 22.0451 7.60562 21.445C7.88796 20.9951 8.13936 20.7833 8.38206 20.7038C8.46146 20.695 8.54526 20.6686 8.62906 20.6686ZM23.3109 20.6686C23.6021 20.6686 23.9594 20.845 24.3345 21.445C24.7094 22.0451 25.005 22.9979 25.005 24.0567C25.005 25.1155 24.7094 26.0684 24.3345 26.6684C23.9594 27.2684 23.6021 27.4448 23.3109 27.4448C23.0198 27.4448 22.6624 27.2684 22.2875 26.6684C21.9124 26.0684 21.6169 25.1155 21.6169 24.0567C21.6169 22.9979 21.9124 22.0451 22.2875 21.445C22.6624 20.845 23.0198 20.6686 23.3109 20.6686Z" fill="url(#paint0_linear_4322_23399)"/>
<defs>
<linearGradient id="paint0_linear_4322_23399" x1="-1.05714" y1="-2.10717" x2="35.6469" y2="34.3772" gradientUnits="userSpaceOnUse">
<stop stop-color="white"/>
<stop offset="1" stop-color="white" stop-opacity="0"/>
</linearGradient>
</defs>
</svg>
