<svg width="28" height="28" viewBox="0 0 28 28" fill="none" xmlns="http://www.w3.org/2000/svg">
<path d="M5.19366 6.85498L1.33131 6.85829C1.33131 6.85829 0.751316 6.82768 0.537674 7.05337C0.349167 7.2547 0.52357 7.58573 0.52357 7.58573C0.52357 7.58573 3.45056 14.1478 6.7915 17.4061C9.15316 19.711 11.5231 20.3985 13.7049 20.3985H14.95C15.62 20.3985 15.9165 20.2546 15.9165 19.9322C15.9165 19.0322 15.9076 17.9796 16.7419 17.7466C17.7356 17.4686 19.1514 19.0699 20.502 19.8959C21.3304 20.4087 22.2974 20.3985 22.2974 20.3985H26.2831C26.2831 20.3985 28.1704 20.2377 27.2743 18.9106C27.2008 18.8013 26.7525 18.1608 24.5901 16.3679C22.325 14.4919 22.6264 14.7949 25.3555 11.5502C27.0162 9.5731 27.6743 7.75045 27.5176 7.2187C27.4085 6.84855 26.772 6.85498 26.0962 6.85498C25.4195 6.85498 22.3366 6.87813 22.0293 6.87813C21.7218 6.87813 21.7279 6.8771 21.5036 6.99716C21.2842 7.11453 21.1439 7.35096 21.1439 7.35096C21.1439 7.35096 20.4619 9.51104 19.6025 10.8129C17.7929 13.5574 16.7742 13.3486 16.4773 13.177C15.789 12.7798 15.9165 11.5791 15.9165 10.7269C15.9165 8.06726 16.2443 7.31071 14.9113 7.02362C14.4704 6.92883 14.1472 6.86492 13.0171 6.85498C11.5651 6.84234 10.7223 6.9085 10.1036 7.1658C9.64054 7.36893 9.27587 7.72487 9.49338 7.75105C9.76213 7.78355 10.3778 7.99408 10.6997 8.38591C11.1173 8.89238 11.0806 10.0292 11.0806 10.0292C11.0806 10.0292 11.3449 12.6764 10.5445 13.0647C9.99637 13.3328 9.24538 13.2698 7.63099 10.7798C6.80445 9.50417 6.15307 7.50307 6.15307 7.50307C6.15307 7.50307 6.03355 7.23389 5.81798 7.09305C5.55697 6.92152 5.19366 6.85498 5.19366 6.85498Z" fill="#0054F7"/>
</svg>
