<svg width="28" height="28" viewBox="0 0 28 28" fill="none" xmlns="http://www.w3.org/2000/svg">
<path d="M5.38372 7.07569L1.52137 7.07899C1.52137 7.07899 0.94138 7.04838 0.727738 7.27408C0.53923 7.4754 0.713633 7.80643 0.713633 7.80643C0.713633 7.80643 3.64063 14.3685 6.98157 17.6268C9.34323 19.9317 11.7131 20.6192 13.8949 20.6192H15.1401C15.8101 20.6192 16.1066 20.4753 16.1066 20.1529C16.1066 19.2529 16.0977 18.2003 16.9319 17.9673C17.9257 17.6893 19.3415 19.2906 20.692 20.1166C21.5204 20.6294 22.4874 20.6192 22.4874 20.6192H26.4732C26.4732 20.6192 28.3604 20.4584 27.4643 19.1313C27.3908 19.022 26.9426 18.3815 24.7801 16.5886C22.5151 14.7126 22.8165 15.0157 25.5456 11.7709C27.2063 9.79381 27.8643 7.97116 27.7077 7.4394C27.5985 7.06925 26.962 7.07569 26.2862 7.07569C25.6096 7.07569 22.5267 7.09884 22.2194 7.09884C21.9119 7.09884 21.918 7.0978 21.6937 7.21786C21.4743 7.33523 21.334 7.57166 21.334 7.57166C21.334 7.57166 20.652 9.73175 19.7925 11.0336C17.9829 13.7781 16.9642 13.5693 16.6674 13.3977C15.9791 13.0005 16.1066 11.7998 16.1066 10.9476C16.1066 8.28796 16.4344 7.53141 15.1013 7.24432C14.6605 7.14953 14.3373 7.08562 13.2072 7.07569C11.7552 7.06304 10.9123 7.1292 10.2937 7.3865C9.8306 7.58963 9.46593 7.94557 9.68344 7.97176C9.95219 8.00425 10.5679 8.21479 10.8898 8.60661C11.3074 9.11308 11.2707 10.2499 11.2707 10.2499C11.2707 10.2499 11.535 12.8971 10.7346 13.2854C10.1864 13.5535 9.43545 13.4905 7.82105 11.0005C6.99451 9.72487 6.34313 7.72377 6.34313 7.72377C6.34313 7.72377 6.22361 7.4546 6.00804 7.31375C5.74703 7.14223 5.38372 7.07569 5.38372 7.07569Z" fill="#0054F7"/>
</svg>
