<svg width="28" height="28" viewBox="0 0 28 28" fill="none" xmlns="http://www.w3.org/2000/svg">
<mask id="mask0_4322_23741" style="mask-type:luminance" maskUnits="userSpaceOnUse" x="0" y="0" width="28" height="28">
<path d="M27.7901 0.0800781H0.700073V27.1701H27.7901V0.0800781Z" fill="white"/>
</mask>
<g mask="url(#mask0_4322_23741)">
<path d="M14.2485 0.0800781H14.2417C6.77331 0.0800781 0.700073 6.15501 0.700073 13.6251C0.700073 16.588 1.655 19.3343 3.2787 21.5641L1.59066 26.5961L6.79702 24.9318C8.93882 26.3506 11.4937 27.1701 14.2485 27.1701C21.7168 27.1701 27.7901 21.0935 27.7901 13.6251C27.7901 6.1567 21.7168 0.0800781 14.2485 0.0800781ZM22.13 19.2073C21.8032 20.1301 20.5063 20.8954 19.4718 21.1188C18.764 21.2695 17.8396 21.3897 14.7276 20.0996C10.7471 18.4505 8.18369 14.4056 7.9839 14.1432C7.79257 13.8807 6.37543 12.0014 6.37543 10.0577C6.37543 8.11396 7.36252 7.1675 7.7604 6.76115C8.08718 6.4276 8.62728 6.27522 9.14538 6.27522C9.313 6.27522 9.46369 6.28369 9.59914 6.29046C9.99702 6.30739 10.1968 6.3311 10.4592 6.95924C10.786 7.74655 11.5818 9.69026 11.6766 9.89004C11.7731 10.0898 11.8696 10.3607 11.7342 10.6232C11.6072 10.8941 11.4954 11.0143 11.2956 11.2445C11.0959 11.4748 10.9062 11.6509 10.7064 11.8981C10.5236 12.1131 10.317 12.3434 10.5473 12.7413C10.7776 13.1307 11.5733 14.4293 12.745 15.4723C14.2569 16.8183 15.4827 17.2484 15.9213 17.4312C16.248 17.5667 16.6375 17.5345 16.8762 17.2805C17.1793 16.9538 17.5534 16.412 17.9344 15.8786C18.2053 15.496 18.5473 15.4486 18.9062 15.584C19.272 15.711 21.2072 16.6676 21.6051 16.8657C22.003 17.0655 22.2654 17.1603 22.3619 17.3279C22.4567 17.4956 22.4567 18.2829 22.13 19.2073Z" fill="#0054F7"/>
</g>
</svg>
