<svg width="97" height="97" viewBox="0 0 97 97" fill="none" xmlns="http://www.w3.org/2000/svg">
<path d="M54.0788 90.2142C76.929 86.9377 92.7969 65.7604 89.5209 42.9133C86.2448 20.0662 65.0654 4.2011 42.2153 7.47758C19.3651 10.754 3.49718 31.9314 6.77322 54.7784C10.0493 77.6255 31.2287 93.4906 54.0788 90.2142Z" fill="#FC3F1D"/>
<path d="M67.8621 72.4749L58.2935 73.8469L51.7271 28.0527L47.4542 28.6654C39.6308 29.7871 36.0809 34.1562 36.8902 39.8004C37.808 46.2011 41.0621 48.7631 47.4419 51.7084L52.7068 54.1603L41.744 76.22L31.4532 77.6956L41.3406 57.9872C33.47 54.0681 28.7454 49.8167 27.5773 41.6703C26.1172 31.4873 32.4662 23.5102 46.3678 21.5168L60.2093 19.5321L67.802 72.4835L67.8621 72.4749Z" fill="white"/>
</svg>
