<svg width="129" height="198" viewBox="0 0 129 198" fill="none" xmlns="http://www.w3.org/2000/svg">
<g clip-path="url(#clip0_4322_23439)">
<g clip-path="url(#clip1_4322_23439)">
<path d="M7.68403 65.0038C3.78368 37.8027 22.6726 12.5901 49.8736 8.68975L51.9938 8.38574C79.1948 4.4854 104.407 23.3743 108.308 50.5754L125.61 171.238C126.263 175.798 121.709 179.338 117.452 177.578L72.509 159.004L34.5968 189.459C31.0057 192.344 25.6397 190.227 24.9858 185.666L7.68403 65.0038Z" fill="#F8F8F9"/>
</g>
</g>
<path d="M64.0788 100.214C86.929 96.9377 102.797 75.7604 99.5209 52.9133C96.2448 30.0662 75.0654 14.2011 52.2153 17.4776C29.3651 20.754 13.4972 41.9314 16.7732 64.7784C20.0493 87.6255 41.2287 103.491 64.0788 100.214Z" fill="#FC3F1D"/>
<path d="M77.8621 82.4749L68.2935 83.8469L61.7271 38.0527L57.4542 38.6654C49.6308 39.7871 46.0809 44.1562 46.8902 49.8004C47.808 56.2011 51.0621 58.7631 57.4419 61.7084L62.7068 64.1603L51.744 86.22L41.4532 87.6956L51.3406 67.9872C43.47 64.0681 38.7454 59.8167 37.5773 51.6703C36.1172 41.4873 42.4662 33.5102 56.3678 31.5168L70.2093 29.5321L77.802 82.4835L77.8621 82.4749Z" fill="white"/>
<path d="M39.5066 128.085L37.9891 117.503L42.1643 116.904C42.967 116.789 43.6728 116.844 44.2817 117.07C44.8901 117.292 45.3813 117.652 45.7551 118.151C46.1318 118.645 46.3706 119.244 46.4714 119.946C46.5721 120.649 46.5095 121.291 46.2834 121.872C46.0573 122.453 45.6781 122.934 45.1458 123.316C44.6169 123.698 43.946 123.947 43.133 124.064L40.4718 124.445L40.2147 122.652L42.5141 122.323C42.9448 122.261 43.289 122.136 43.5467 121.948C43.8075 121.756 43.9877 121.517 44.0875 121.232C44.1902 120.943 44.2166 120.625 44.1667 120.277C44.1164 119.925 44.0018 119.629 43.823 119.387C43.6472 119.142 43.4076 118.967 43.1044 118.863C42.8007 118.755 42.4318 118.733 41.9977 118.795L40.4889 119.011L41.744 127.765L39.5066 128.085ZM52.398 126.395C51.5816 126.512 50.8551 126.448 50.2186 126.201C49.5851 125.951 49.0661 125.544 48.6618 124.98C48.2569 124.412 47.9945 123.71 47.8744 122.872C47.7574 122.056 47.8131 121.317 48.0416 120.655C48.2701 119.993 48.6473 119.448 49.1732 119.021C49.7026 118.594 50.3565 118.324 51.1351 118.212C51.6587 118.137 52.1582 118.152 52.6337 118.256C53.1121 118.356 53.5441 118.549 53.9296 118.835C54.3186 119.12 54.6441 119.502 54.9062 119.981C55.1678 120.457 55.347 121.033 55.4438 121.708L55.5305 122.313L48.8285 123.274L48.6329 121.909L53.2628 121.245C53.2173 120.929 53.1082 120.658 52.9353 120.433C52.7624 120.208 52.5438 120.044 52.2795 119.942C52.0181 119.835 51.7272 119.804 51.4068 119.85C51.0727 119.898 50.7875 120.018 50.5514 120.21C50.3182 120.399 50.1478 120.632 50.0402 120.911C49.932 121.187 49.8987 121.482 49.9402 121.796L50.1262 123.093C50.1825 123.485 50.3035 123.814 50.4892 124.08C50.6783 124.344 50.9184 124.535 51.2093 124.651C51.5002 124.768 51.83 124.8 52.1986 124.747C52.4432 124.712 52.6621 124.645 52.8555 124.547C53.0489 124.449 53.208 124.321 53.333 124.162C53.4579 124.004 53.5439 123.819 53.5911 123.608L55.6462 123.451C55.613 123.955 55.4624 124.412 55.1944 124.823C54.9294 125.231 54.5599 125.572 54.0861 125.847C53.6153 126.119 53.0526 126.301 52.398 126.395ZM59.142 122.306L61.2778 116.863L63.4481 116.552L64.5862 124.489L62.4883 124.79L61.7644 119.742L59.6411 125.198L57.4553 125.512L56.3172 117.575L58.4203 117.273L59.142 122.306ZM60.5035 114.148L62.0382 113.928C62.1246 114.555 61.9645 115.093 61.5577 115.542C61.1543 115.99 60.5617 116.27 59.7797 116.382C58.9942 116.495 58.345 116.393 57.832 116.076C57.319 115.759 57.0176 115.288 56.9277 114.661L58.452 114.442C58.4827 114.68 58.5891 114.883 58.7713 115.05C58.9569 115.217 59.2375 115.273 59.613 115.22C59.9781 115.167 60.2266 115.037 60.3584 114.828C60.4902 114.619 60.5385 114.392 60.5035 114.148ZM64.6639 118.145L64.4157 116.414L71.6086 115.382L71.8568 117.113L69.299 117.48L70.1889 123.686L68.0909 123.987L67.201 117.781L64.6639 118.145ZM75.7678 119.922L77.9037 114.48L80.074 114.168L81.212 122.105L79.1141 122.406L78.3902 117.358L76.2669 122.814L74.0811 123.128L72.9431 115.191L75.0462 114.889L75.7678 119.922ZM87.8055 116.213L88.0538 117.944L83.9096 118.539L83.6614 116.808L87.8055 116.213ZM83.9417 113.614L85.0798 121.551L82.9767 121.852L81.8386 113.915L83.9417 113.614ZM88.7421 112.925L89.8802 120.862L87.7926 121.162L86.6545 113.225L88.7421 112.925ZM95.886 111.901L96.1342 113.632L92.8374 114.105L93.7273 120.311L91.588 120.618L90.4499 112.681L95.886 111.901Z" fill="#6D7280"/>
<path d="M39.0099 136.629L39.2542 138.333L35.1748 138.918L34.9304 137.214L39.0099 136.629ZM35.2064 134.07L36.3267 141.883L34.2565 142.18L33.1362 134.367L35.2064 134.07ZM39.9318 133.392L41.0521 141.205L38.9972 141.5L37.8769 133.687L39.9318 133.392ZM44.9823 140.792C44.4838 140.864 44.0272 140.841 43.6124 140.724C43.1972 140.604 42.8514 140.388 42.5751 140.079C42.3017 139.765 42.128 139.35 42.0541 138.835C41.9919 138.401 42.0193 138.025 42.1364 137.707C42.2534 137.389 42.4364 137.12 42.6853 136.901C42.9342 136.682 43.2268 136.502 43.5629 136.36C43.9025 136.218 44.2629 136.101 44.6441 136.008C45.0917 135.895 45.4516 135.799 45.7238 135.718C45.9956 135.634 46.1881 135.541 46.3014 135.438C46.4147 135.335 46.4595 135.201 46.4356 135.035L46.4313 135.004C46.3851 134.682 46.2476 134.447 46.0189 134.3C45.7935 134.153 45.496 134.105 45.1264 134.158C44.7364 134.214 44.4385 134.345 44.2327 134.551C44.0265 134.754 43.9045 134.989 43.8668 135.258L41.8394 135.382C41.873 134.893 42.0143 134.454 42.2631 134.065C42.5114 133.673 42.8579 133.35 43.3025 133.096C43.75 132.838 44.2858 132.664 44.9097 132.575C45.3438 132.513 45.7665 132.504 46.1778 132.549C46.5925 132.593 46.9695 132.7 47.3087 132.869C47.6514 133.038 47.9366 133.278 48.1645 133.588C48.3918 133.894 48.5388 134.28 48.6054 134.744L49.3611 140.014L47.3061 140.309L47.1507 139.225L47.0897 139.234C46.9992 139.496 46.8623 139.736 46.6787 139.952C46.4948 140.165 46.2628 140.346 45.9828 140.493C45.7024 140.637 45.3689 140.737 44.9823 140.792ZM45.3885 139.208C45.7072 139.162 45.9797 139.059 46.2058 138.899C46.4315 138.735 46.5983 138.534 46.7062 138.297C46.8141 138.06 46.8484 137.805 46.809 137.53L46.6901 136.701C46.6286 136.755 46.5412 136.809 46.4279 136.863C46.3174 136.913 46.1915 136.964 46.0501 137.016C45.9081 137.064 45.766 137.11 45.6236 137.155C45.4807 137.196 45.3511 137.234 45.2348 137.268C44.9859 137.341 44.7722 137.433 44.594 137.541C44.4158 137.65 44.2841 137.781 44.1989 137.935C44.1132 138.086 44.085 138.263 44.1141 138.467C44.1564 138.762 44.2956 138.972 44.5316 139.097C44.7705 139.219 45.0561 139.256 45.3885 139.208ZM62.3942 138.145L60.1968 138.46L58.9612 129.844L57.4759 130.057C57.052 130.117 56.7084 130.231 56.4449 130.396C56.1843 130.558 56.0016 130.768 55.8966 131.025C55.7916 131.283 55.7639 131.584 55.8135 131.93C55.8626 132.273 55.9732 132.549 56.1453 132.76C56.3174 132.971 56.5507 133.114 56.8453 133.189C57.1399 133.264 57.4975 133.272 57.918 133.212L60.3087 132.869L60.5625 134.639L57.8157 135.033C57.0188 135.147 56.3183 135.113 55.714 134.929C55.1098 134.746 54.623 134.428 54.2536 133.976C53.8837 133.52 53.6491 132.947 53.5499 132.255C53.4512 131.566 53.5112 130.947 53.7299 130.396C53.9515 129.842 54.3205 129.386 54.8367 129.028C55.3559 128.667 56.0088 128.429 56.7955 128.316L60.9004 127.728L62.3942 138.145ZM56.0937 134.21L58.4692 133.87L56.6158 138.974L54.1844 139.322L56.0937 134.21ZM68.9164 132.341L69.1608 134.045L65.0813 134.63L64.837 132.926L68.9164 132.341ZM65.113 129.782L66.2333 137.595L64.163 137.892L63.0427 130.079L65.113 129.782ZM69.8384 129.104L70.9587 136.917L68.9037 137.212L67.7834 129.399L69.8384 129.104ZM72.3576 139.053L71.7829 135.044L72.3831 134.958C72.5405 134.825 72.6547 134.632 72.7258 134.38C72.8003 134.127 72.8483 133.834 72.87 133.502C72.895 133.17 72.8994 132.815 72.8832 132.436C72.8699 132.054 72.8511 131.669 72.8267 131.282L72.664 128.699L78.656 127.84L79.5298 133.933L80.7404 133.76L81.3151 137.768L79.2499 138.064L78.9217 135.775L74.1454 136.46L74.4736 138.749L72.3576 139.053ZM74.5398 134.649L77.4849 134.227L76.8504 129.801L74.7446 130.103L74.7901 131C74.8521 131.843 74.8706 132.563 74.8457 133.162C74.8203 133.757 74.7184 134.253 74.5398 134.649ZM85.8321 134.94C85.0284 135.055 84.3133 134.992 83.6868 134.749C83.0631 134.503 82.5523 134.102 82.1542 133.547C81.7557 132.988 81.4974 132.296 81.3792 131.472C81.264 130.669 81.3188 129.941 81.5438 129.289C81.7687 128.638 82.14 128.102 82.6577 127.681C83.1788 127.26 83.8225 126.995 84.5889 126.885C85.1043 126.811 85.5961 126.826 86.0641 126.928C86.5351 127.027 86.9603 127.217 87.3398 127.498C87.7227 127.779 88.0431 128.155 88.3011 128.627C88.5586 129.095 88.735 129.662 88.8303 130.326L88.9156 130.921L82.3183 131.867L82.1258 130.524L86.6834 129.871C86.6386 129.559 86.5312 129.292 86.361 129.071C86.1908 128.85 85.9757 128.688 85.7154 128.587C85.4581 128.482 85.1718 128.452 84.8564 128.498C84.5275 128.545 84.2468 128.663 84.0144 128.852C83.7848 129.037 83.6171 129.267 83.5111 129.542C83.4047 129.813 83.3719 130.103 83.4127 130.413L83.5958 131.689C83.6512 132.076 83.7703 132.4 83.9531 132.661C84.1393 132.921 84.3756 133.109 84.6619 133.224C84.9483 133.338 85.2729 133.37 85.6358 133.318C85.8766 133.283 86.0921 133.217 86.2825 133.121C86.4728 133.024 86.6295 132.898 86.7524 132.742C86.8754 132.586 86.9601 132.404 87.0065 132.197L89.0296 132.042C88.9969 132.538 88.8486 132.988 88.5848 133.393C88.3239 133.794 87.9602 134.13 87.4938 134.401C87.0303 134.668 86.4764 134.848 85.8321 134.94ZM90.8103 134.071L89.69 126.258L91.8569 125.947L92.2916 128.978L92.902 128.891L94.5935 125.554L97.1368 125.19L94.9306 129.462L98.2876 132.998L95.7138 133.367L93.3885 130.872L92.5797 130.988L92.9772 133.76L90.8103 134.071ZM102.433 132.56C101.633 132.674 100.92 132.604 100.295 132.347C99.6732 132.087 99.1643 131.675 98.7686 131.113C98.3764 130.549 98.1236 129.873 98.0103 129.083C97.8956 128.282 97.9492 127.558 98.1713 126.91C98.3962 126.259 98.7709 125.722 99.2954 125.301C99.8193 124.876 100.476 124.607 101.267 124.494C101.948 124.396 102.563 124.434 103.11 124.608C103.658 124.783 104.113 125.072 104.475 125.477C104.838 125.882 105.078 126.384 105.195 126.983L103.15 127.276C103.037 126.894 102.839 126.603 102.557 126.401C102.279 126.195 101.941 126.121 101.544 126.177C101.209 126.226 100.928 126.359 100.704 126.578C100.482 126.794 100.326 127.084 100.237 127.45C100.147 127.816 100.138 128.244 100.208 128.736C100.28 129.235 100.409 129.649 100.594 129.979C100.783 130.308 101.017 130.546 101.294 130.693C101.571 130.841 101.877 130.89 102.213 130.842C102.461 130.806 102.675 130.724 102.858 130.594C103.043 130.463 103.186 130.292 103.287 130.08C103.392 129.865 103.444 129.617 103.446 129.336L105.49 129.043C105.542 129.645 105.455 130.194 105.228 130.69C105.005 131.182 104.657 131.592 104.184 131.919C103.712 132.247 103.129 132.46 102.433 132.56Z" fill="#6D7280"/>
<defs>
<clipPath id="clip0_4322_23439">
<rect width="102.77" height="184.09" fill="white" transform="translate(0.410034 15.0703) rotate(-8.16)"/>
</clipPath>
<clipPath id="clip1_4322_23439">
<rect width="102.77" height="178.73" fill="white" transform="translate(0.410034 15.0703) rotate(-8.16)"/>
</clipPath>
</defs>
</svg>
