<svg width="28" height="28" viewBox="0 0 28 28" fill="none" xmlns="http://www.w3.org/2000/svg">
<path d="M14.2028 27.3976C21.5851 27.3976 27.5696 21.4131 27.5696 14.0308C27.5696 6.64857 21.5851 0.664062 14.2028 0.664062C6.82057 0.664062 0.83606 6.64857 0.83606 14.0308C0.83606 21.4131 6.82057 27.3976 14.2028 27.3976Z" fill="#FC3F1D"/>
<path d="M19.3713 22.4083H16.28V7.61142H14.8995C12.372 7.61142 11.0499 8.83354 11.0499 10.6573C11.0499 12.7254 11.9637 13.6843 13.8496 14.9064L15.405 15.9217L10.9332 22.4083H7.60855L11.6332 16.6174C9.3195 15.0193 8.01686 13.4587 8.01686 10.8265C8.01686 7.53621 10.3888 5.29883 14.8801 5.29883H19.3519V22.4083H19.3713Z" fill="white"/>
</svg>
