<svg width="28" height="28" viewBox="0 0 28 28" fill="none" xmlns="http://www.w3.org/2000/svg">
<path d="M27.4089 7.78969C27.0959 6.62472 26.1744 5.70317 25.0093 5.39019C22.9055 4.81641 14.4377 4.81641 14.4377 4.81641C14.4377 4.81641 5.96985 4.83379 3.86594 5.40759C2.70097 5.72057 1.77942 6.64211 1.46644 7.80709C0.910034 9.91101 0.910034 14.3101 0.910034 14.3101C0.910034 14.3101 0.910034 18.7092 1.48383 20.8304C1.7968 21.9954 2.71835 22.917 3.88332 23.23C5.98724 23.8038 14.455 23.8038 14.455 23.8038C14.455 23.8038 22.9228 23.8038 25.0268 23.23C26.1917 22.917 27.1133 21.9954 27.4263 20.8304C28 18.7266 28 14.3101 28 14.3101C28 14.3101 27.9827 9.91101 27.4089 7.78969Z" fill="#0054F7"/>
<path d="M11.7358 18.3835L18.7605 14.3148L11.7358 10.2461V18.3835Z" fill="white"/>
</svg>
