<svg width="222" height="63" viewBox="0 0 222 63" fill="none" xmlns="http://www.w3.org/2000/svg">
<rect x="4.91998" y="0.560547" width="218.44" height="31.84" rx="6.78" transform="rotate(8 4.91998 0.560547)" fill="#00268D"/>
<path d="M11.7718 23.2518L13.2248 12.9131L17.3643 13.4949C18.1249 13.6018 18.7435 13.8037 19.22 14.1006C19.6965 14.3975 20.0345 14.7641 20.234 15.2006C20.4339 15.6337 20.4975 16.1093 20.4246 16.6276C20.3679 17.0315 20.2372 17.3752 20.0326 17.6587C19.8285 17.9389 19.5714 18.1568 19.2613 18.3122C18.955 18.4648 18.6161 18.5562 18.2446 18.5863L18.2304 18.6873C18.6218 18.7595 18.9748 18.9223 19.2892 19.1758C19.607 19.4299 19.8475 19.7571 20.0109 20.1576C20.1747 20.5547 20.2209 21.0073 20.1495 21.5155C20.0724 22.0641 19.8673 22.5346 19.5342 22.9271C19.2049 23.3167 18.7585 23.5988 18.1951 23.7736C17.6318 23.9484 16.963 23.9814 16.189 23.8726L11.7718 23.2518ZM14.2088 21.772L15.9908 22.0224C16.6 22.108 17.0605 22.0543 17.3725 21.8614C17.685 21.6651 17.8686 21.3717 17.9235 20.9813C17.9637 20.6952 17.9302 20.4331 17.8229 20.195C17.7157 19.9568 17.5429 19.7575 17.3047 19.5971C17.0697 19.4371 16.7773 19.3325 16.4273 19.2833L14.5948 19.0257L14.2088 21.772ZM14.8027 17.5466L16.4231 17.7744C16.7227 17.8165 16.9959 17.8017 17.2427 17.73C17.4935 17.6554 17.6998 17.5299 17.8619 17.3537C18.0273 17.1779 18.1292 16.9537 18.1675 16.681C18.22 16.3075 18.1294 15.9876 17.8957 15.7214C17.6653 15.4556 17.3078 15.2887 16.8232 15.2206L15.1624 14.9872L14.8027 17.5466ZM24.6424 25.2151C23.8448 25.103 23.1809 24.845 22.6508 24.441C22.1246 24.0342 21.7485 23.5111 21.5226 22.8719C21.2971 22.2293 21.2419 21.4992 21.3568 20.6813C21.4689 19.8837 21.7221 19.2055 22.1164 18.6466C22.5107 18.0877 23.0125 17.6794 23.6218 17.4219C24.2345 17.1648 24.9212 17.0897 25.6818 17.1966C26.1933 17.2685 26.658 17.4179 27.0757 17.6447C27.4972 17.8687 27.8499 18.1671 28.1339 18.5399C28.4212 18.9132 28.6226 19.3602 28.7382 19.8809C28.8542 20.3983 28.8659 20.9868 28.7732 21.6464L28.6902 22.2371L22.1427 21.3169L22.33 19.9841L26.8532 20.6198C26.8967 20.3102 26.8679 20.0265 26.7669 19.7686C26.6658 19.5107 26.5053 19.2977 26.2853 19.1295C26.0691 18.9584 25.8045 18.8509 25.4915 18.8069C25.1651 18.761 24.865 18.796 24.5913 18.912C24.3214 19.0251 24.0981 19.1979 23.9213 19.4305C23.7449 19.6596 23.6335 19.9271 23.5871 20.2329L23.4091 21.5C23.3551 21.8837 23.3792 22.2251 23.4813 22.5243C23.5868 22.824 23.7601 23.068 24.0013 23.2563C24.2426 23.4447 24.5432 23.5641 24.9033 23.6147C25.1423 23.6483 25.3658 23.6454 25.5738 23.606C25.7818 23.5666 25.966 23.4895 26.1262 23.3748C26.2865 23.26 26.4174 23.1102 26.5188 22.9255L28.4894 23.3362C28.3213 23.8 28.0556 24.1882 27.6925 24.5009C27.3332 24.8108 26.8939 25.0305 26.3747 25.16C25.8592 25.2866 25.2818 25.305 24.6424 25.2151ZM33.1082 26.4049C32.314 26.2933 31.6544 26.029 31.1296 25.612C30.6086 25.1922 30.2373 24.6595 30.0157 24.0141C29.7975 23.3691 29.7435 22.6545 29.8537 21.8704C29.9653 21.0761 30.2163 20.401 30.6068 19.845C31.0011 19.2861 31.5063 18.8783 32.1223 18.6217C32.7389 18.3617 33.4392 18.2868 34.2234 18.397C34.8998 18.4921 35.4749 18.6982 35.9485 19.0153C36.4222 19.3324 36.7759 19.7339 37.0096 20.2197C37.2433 20.7056 37.3333 21.2502 37.2794 21.8535L35.25 21.5683C35.2472 21.1732 35.1395 20.8406 34.9269 20.5705C34.7182 20.2975 34.4169 20.1333 34.0232 20.078C33.69 20.0312 33.3861 20.0811 33.1115 20.2279C32.8407 20.3717 32.6123 20.6056 32.426 20.9294C32.2398 21.2533 32.1124 21.6593 32.0438 22.1473C31.9743 22.642 31.9825 23.0721 32.0684 23.4377C32.1576 23.8037 32.314 24.0951 32.5375 24.3119C32.761 24.5286 33.0394 24.6604 33.3726 24.7072C33.6182 24.7417 33.8458 24.7222 34.0552 24.6487C34.2679 24.5756 34.4517 24.4522 34.6066 24.2783C34.7652 24.1016 34.8839 23.8797 34.9626 23.6128L36.992 23.898C36.8751 24.4856 36.6403 24.9846 36.2874 25.3949C35.9385 25.8023 35.4938 26.0967 34.9535 26.2782C34.4133 26.4596 33.7981 26.5019 33.1082 26.4049ZM41.2596 27.3961L42.3494 19.642L49.1292 20.5949L48.0394 28.3489L45.9848 28.0601L46.8369 21.9972L44.1411 21.6184L43.289 27.6813L41.2596 27.3961ZM53.238 29.234C52.4538 29.1237 51.7991 28.8618 51.2738 28.4483C50.7523 28.0318 50.3789 27.5023 50.1534 26.8597C49.9285 26.2137 49.8718 25.4937 49.9834 24.6994C50.096 23.8984 50.3492 23.2202 50.743 22.6646C51.1373 22.1057 51.6422 21.6996 52.2578 21.4464C52.8772 21.1903 53.579 21.1173 54.3632 21.2275C55.1474 21.3377 55.8002 21.601 56.3216 22.0175C56.8469 22.4311 57.2221 22.9609 57.447 23.6068C57.6725 24.2494 57.7289 24.9712 57.6163 25.7721C57.5047 26.5664 57.2517 27.243 56.8574 27.8019C56.4636 28.3574 55.957 28.7633 55.3376 29.0194C54.722 29.2726 54.0221 29.3442 53.238 29.234ZM53.4822 27.5695C53.8389 27.6196 54.151 27.5605 54.4183 27.3921C54.6861 27.2204 54.9054 26.9664 55.0762 26.6301C55.2504 26.2942 55.3692 25.9008 55.4326 25.4498C55.496 24.9988 55.4902 24.5879 55.4154 24.217C55.3439 23.8466 55.2031 23.542 54.993 23.3031C54.7829 23.0642 54.4995 22.9197 54.1427 22.8696C53.7826 22.819 53.4653 22.879 53.1908 23.0498C52.9196 23.2211 52.6969 23.4746 52.5227 23.8105C52.3519 24.1468 52.2348 24.5405 52.1714 24.9915C52.108 25.4424 52.1121 25.8531 52.1836 26.2235C52.2585 26.5944 52.4026 26.8995 52.6161 27.1389C52.8334 27.3753 53.1221 27.5189 53.4822 27.5695ZM58.0197 29.7515L58.2494 28.0438L58.5069 28.08C58.6886 28.1056 58.8513 28.0838 58.9948 28.0147C59.1422 27.9428 59.2738 27.812 59.3897 27.6224C59.5056 27.4327 59.6122 27.1749 59.7095 26.8488C59.8073 26.5193 59.8991 26.1101 59.985 25.6211L60.5936 22.2061L66.49 23.0348L65.4002 30.7888L63.3506 30.5008L64.2027 24.4379L62.2894 24.169L61.8355 26.5195C61.714 27.1648 61.5564 27.7124 61.3627 28.1622C61.1725 28.6125 60.9452 28.9718 60.681 29.2401C60.4172 29.5051 60.1189 29.6862 59.7861 29.7836C59.4532 29.8809 59.0798 29.9005 58.6659 29.8424L58.0197 29.7515ZM69.1701 25.8412L71.4873 26.1669C72.5137 26.3112 73.2802 26.6694 73.7866 27.2416C74.2935 27.8105 74.4895 28.5039 74.3746 29.3217C74.2998 29.8534 74.1045 30.303 73.7886 30.6704C73.4732 31.0345 73.0557 31.295 72.536 31.4519C72.0168 31.6054 71.4156 31.6342 70.7324 31.5382L67.0674 31.0231L68.1571 23.2691L70.2117 23.5578L69.3597 29.6207L70.97 29.847C71.3301 29.8976 71.6391 29.8484 71.8968 29.6993C72.1546 29.5502 72.305 29.3345 72.3481 29.0523C72.3869 28.7523 72.3034 28.4918 72.0976 28.2707C71.8924 28.0462 71.6097 27.9087 71.2496 27.858L68.9324 27.5324L69.1701 25.8412ZM75.3345 29.9456L77.4194 30.2386C77.3936 30.4958 77.4796 30.7139 77.6775 30.8927C77.8755 31.0715 78.1478 31.1853 78.4944 31.234C78.8444 31.2832 79.1503 31.2438 79.4119 31.1158C79.674 30.9845 79.8266 30.7657 79.8697 30.4595C79.8962 30.271 79.872 30.1011 79.7971 29.9499C79.7228 29.7953 79.6071 29.6658 79.4502 29.5614C79.2933 29.457 79.1038 29.3892 78.8816 29.3579L77.766 29.2011L77.9639 27.7927L79.0796 27.9495C79.4128 27.9963 79.6794 27.9549 79.8795 27.8251C80.083 27.6958 80.2011 27.5151 80.2337 27.2829C80.2706 27.0204 80.206 26.7968 80.0397 26.6121C79.8773 26.4246 79.638 26.3086 79.3216 26.2641C79.0019 26.2192 78.7258 26.2542 78.4935 26.3691C78.2649 26.4811 78.1312 26.6511 78.0923 26.879L76.0175 26.5874C76.0895 26.1239 76.2857 25.7413 76.6061 25.4397C76.9298 25.1386 77.3369 24.9281 77.8274 24.8083C78.3212 24.6889 78.8575 24.6699 79.4364 24.7513C80.0691 24.8402 80.6018 25.006 81.0344 25.2487C81.4709 25.4885 81.789 25.7889 81.9888 26.1499C82.192 26.5113 82.2619 26.9176 82.1985 27.3685C82.1408 27.7791 81.9579 28.1035 81.6499 28.3416C81.3419 28.5797 80.9373 28.7236 80.4361 28.7733L80.4248 28.8541C80.7416 28.9192 81.019 29.0457 81.2569 29.2336C81.4947 29.4215 81.6724 29.6592 81.7898 29.9468C81.9077 30.2311 81.9414 30.5533 81.8908 30.9134C81.8231 31.3947 81.6239 31.7871 81.2929 32.0906C80.9653 32.3946 80.5412 32.6044 80.0204 32.72C79.5035 32.8327 78.927 32.8443 78.291 32.7549C77.6717 32.6679 77.129 32.5007 76.6627 32.2532C76.2002 32.0029 75.8489 31.6824 75.6086 31.2917C75.3717 30.9015 75.2804 30.4528 75.3345 29.9456ZM86.3896 33.8931C85.6054 33.7829 84.9507 33.521 84.4254 33.1074C83.9039 32.6909 83.5305 32.1614 83.305 31.5188C83.0801 30.8729 83.0234 30.1528 83.135 29.3586C83.2476 28.5576 83.5008 27.8793 83.8946 27.3238C84.2889 26.7649 84.7938 26.3588 85.4094 26.1055C86.0289 25.8494 86.7306 25.7764 87.5148 25.8866C88.299 25.9968 88.9518 26.2602 89.4732 26.6767C89.9985 27.0903 90.3737 27.62 90.5986 28.266C90.8241 28.9085 90.8805 29.6303 90.7679 30.4313C90.6563 31.2255 90.4033 31.9021 90.0091 32.461C89.6152 33.0166 89.1086 33.4224 88.4892 33.6785C87.8736 33.9318 87.1737 34.0033 86.3896 33.8931ZM86.6338 32.2286C86.9905 32.2787 87.3026 32.2196 87.5699 32.0513C87.8377 31.8796 88.057 31.6256 88.2278 31.2892C88.402 30.9533 88.5208 30.5599 88.5842 30.1089C88.6476 29.658 88.6418 29.247 88.567 28.8762C88.4955 28.5058 88.3547 28.2011 88.1446 27.9622C87.9345 27.7234 87.6511 27.5789 87.2943 27.5287C86.9342 27.4781 86.6169 27.5382 86.3424 27.709C86.0712 27.8802 85.8485 28.1338 85.6743 28.4696C85.5035 28.806 85.3864 29.1996 85.323 29.6506C85.2596 30.1016 85.2637 30.5123 85.3352 30.8827C85.4101 31.2536 85.5542 31.5587 85.7677 31.798C85.985 32.0345 86.2737 32.178 86.6338 32.2286ZM91.6256 34.4745L92.7154 26.7205L96.022 27.1852C96.9778 27.3195 97.7078 27.6075 98.212 28.049C98.7162 28.4905 98.9213 29.0461 98.8272 29.7158C98.768 30.1365 98.5623 30.4645 98.2101 30.6999C97.8578 30.9352 97.3972 31.0627 96.8282 31.0822C97.2879 31.1812 97.6684 31.3427 97.9698 31.567C98.275 31.7884 98.4939 32.0508 98.6262 32.3542C98.762 32.6581 98.806 32.9801 98.7582 33.32C98.6962 33.7609 98.5252 34.1229 98.2452 34.4062C97.9685 34.6899 97.5929 34.8842 97.1182 34.9891C96.647 35.0945 96.0883 35.1017 95.4421 35.0109L91.6256 34.4745ZM93.8561 33.1458L95.6684 33.4005C95.9679 33.4426 96.2118 33.4048 96.3999 33.2871C96.5919 33.1665 96.7054 32.9817 96.7404 32.7327C96.7792 32.4567 96.7239 32.2276 96.5744 32.0453C96.4284 31.8634 96.2056 31.7515 95.9061 31.7094L94.0938 31.4547L93.8561 33.1458ZM94.2712 30.1926L95.619 30.3821C95.8344 30.4123 96.0221 30.4078 96.1821 30.3685C96.3459 30.3263 96.4764 30.252 96.5737 30.1456C96.6744 30.0396 96.7361 29.9059 96.7588 29.7443C96.7924 29.5054 96.7227 29.3051 96.5498 29.1435C96.3769 28.982 96.1239 28.8777 95.7907 28.8309L94.4883 28.6479L94.2712 30.1926ZM102.007 36.0828C101.512 36.0133 101.083 35.8655 100.72 35.6395C100.358 35.4101 100.088 35.1096 99.9102 34.738C99.7364 34.3635 99.6854 33.9205 99.7573 33.4089C99.8178 32.9781 99.9477 32.6275 100.147 32.3569C100.346 32.0863 100.595 31.881 100.893 31.741C101.19 31.6009 101.519 31.5098 101.878 31.4676C102.241 31.426 102.617 31.4136 103.006 31.4305C103.463 31.4467 103.833 31.4541 104.115 31.4525C104.397 31.4475 104.606 31.4117 104.742 31.3451C104.879 31.2784 104.958 31.1627 104.982 30.9978L104.986 30.9675C105.031 30.6477 104.964 30.3862 104.787 30.1828C104.613 29.9799 104.343 29.8527 103.976 29.8011C103.589 29.7467 103.269 29.7893 103.016 29.9287C102.763 30.0648 102.582 30.2556 102.472 30.501L100.506 30.0599C100.673 29.6029 100.929 29.2236 101.273 28.9219C101.618 28.6169 102.038 28.4047 102.531 28.2854C103.029 28.1631 103.587 28.1455 104.207 28.2325C104.637 28.2931 105.043 28.4015 105.422 28.5578C105.805 28.7146 106.135 28.9205 106.411 29.1756C106.691 29.4311 106.897 29.738 107.028 30.0963C107.16 30.4511 107.194 30.8591 107.129 31.3202L106.394 36.5501L104.355 36.2635L104.506 35.1882L104.445 35.1797C104.287 35.4045 104.09 35.5948 103.855 35.7506C103.621 35.903 103.35 36.0108 103.043 36.074C102.736 36.1338 102.391 36.1367 102.007 36.0828ZM102.831 34.6852C103.148 34.7297 103.436 34.7067 103.696 34.6162C103.956 34.5224 104.17 34.3775 104.338 34.1815C104.507 33.9855 104.61 33.7512 104.648 33.4786L104.764 32.6557C104.69 32.69 104.592 32.7174 104.469 32.7378C104.35 32.7554 104.216 32.7692 104.067 32.7791C103.919 32.7857 103.77 32.7906 103.622 32.7938C103.475 32.7937 103.341 32.7937 103.221 32.794C102.963 32.7956 102.734 32.8235 102.535 32.8778C102.335 32.932 102.173 33.0208 102.049 33.1442C101.926 33.2641 101.85 33.4251 101.822 33.627C101.781 33.9198 101.855 34.1585 102.045 34.3431C102.24 34.5248 102.502 34.6389 102.831 34.6852ZM108.136 30.6123L108.374 28.9211L115.401 29.9087L115.163 31.5999L112.664 31.2487L111.812 37.3116L109.763 37.0235L110.615 30.9606L108.136 30.6123ZM118.85 38.4551C118.052 38.343 117.388 38.0849 116.858 37.681C116.332 37.2741 115.956 36.7511 115.73 36.1119C115.504 35.4693 115.449 34.7391 115.564 33.9213C115.676 33.1237 115.929 32.4454 116.324 31.8865C116.718 31.3276 117.22 30.9194 117.829 30.6618C118.442 30.4047 119.128 30.3296 119.889 30.4365C120.401 30.5084 120.865 30.6578 121.283 30.8847C121.704 31.1087 122.057 31.407 122.341 31.7798C122.628 32.1531 122.83 32.6001 122.945 33.1209C123.061 33.6382 123.073 34.2267 122.98 34.8864L122.897 35.477L116.35 34.5568L116.537 33.2241L121.06 33.8598C121.104 33.5502 121.075 33.2664 120.974 33.0086C120.873 32.7507 120.712 32.5377 120.492 32.3695C120.276 32.1984 120.012 32.0908 119.699 32.0468C119.372 32.0009 119.072 32.036 118.798 32.152C118.529 32.265 118.305 32.4379 118.128 32.6704C117.952 32.8996 117.841 33.1671 117.794 33.4729L117.616 34.74C117.562 35.1236 117.586 35.465 117.688 35.7642C117.794 36.0639 117.967 36.3079 118.209 36.4963C118.45 36.6846 118.75 36.8041 119.111 36.8547C119.349 36.8883 119.573 36.8854 119.781 36.846C119.989 36.8066 120.173 36.7295 120.333 36.6147C120.494 36.5 120.625 36.3502 120.726 36.1654L122.697 36.5762C122.528 37.0399 122.263 37.4281 121.9 37.7409C121.54 38.0507 121.101 38.2704 120.582 38.3999C120.066 38.5265 119.489 38.5449 118.85 38.4551ZM123.379 38.9372L123.609 37.2295L123.866 37.2656C124.048 37.2912 124.21 37.2694 124.354 37.2004C124.501 37.1284 124.633 36.9976 124.749 36.808C124.865 36.6184 124.971 36.3605 125.069 36.0344C125.166 35.705 125.258 35.2957 125.344 34.8068L125.953 31.3917L131.849 32.2204L130.759 39.9744L128.71 39.6864L129.562 33.6235L127.649 33.3546L127.195 35.7052C127.073 36.3505 126.916 36.898 126.722 37.3478C126.532 37.7981 126.304 38.1574 126.04 38.4258C125.776 38.6907 125.478 38.8718 125.145 38.9692C124.812 39.0666 124.439 39.0862 124.025 39.028L123.379 38.9372ZM136.97 40.8473L137.823 34.7793L136.369 34.575C135.975 34.5197 135.663 34.5684 135.432 34.7213C135.201 34.8742 135.07 35.0754 135.038 35.3249C134.999 35.5768 135.067 35.8043 135.241 36.0072C135.419 36.2072 135.703 36.3346 136.093 36.3895L138.284 36.6974L138.08 38.1513L135.889 37.8434C135.226 37.7502 134.666 37.5686 134.21 37.2986C133.754 37.0285 133.42 36.695 133.208 36.298C132.996 35.8976 132.926 35.4571 132.997 34.9763C133.065 34.471 133.257 34.0466 133.572 33.7032C133.889 33.3565 134.306 33.1114 134.824 32.9679C135.345 32.8216 135.939 32.7952 136.606 32.8889L140.064 33.3749L138.974 41.1289L136.97 40.8473ZM132.043 40.1548L134.766 36.4192L136.821 36.708L134.103 40.4443L132.043 40.1548ZM143.01 44.0127L143.569 40.0347L144.165 40.1185C144.352 40.0349 144.514 39.8826 144.651 39.6617C144.792 39.4413 144.919 39.1759 145.031 38.8657C145.146 38.5559 145.249 38.2185 145.338 37.8535C145.431 37.4856 145.519 37.1136 145.603 36.7376L146.161 34.2318L152.108 35.0675L151.258 41.1153L152.459 41.2841L151.9 45.2621L149.85 44.9741L150.17 42.7024L145.429 42.0362L145.11 44.3079L143.01 44.0127ZM146.305 40.4193L149.228 40.8301L149.846 36.4381L147.756 36.1444L147.551 37.0114C147.378 37.8313 147.196 38.5231 147.007 39.0868C146.819 39.6472 146.585 40.0913 146.305 40.4193ZM156.955 43.8104C156.171 43.7002 155.516 43.4383 154.991 43.0247C154.469 42.6082 154.096 42.0787 153.87 41.4361C153.645 40.7902 153.589 40.0701 153.7 39.2758C153.813 38.4749 154.066 37.7966 154.46 37.2411C154.854 36.6821 155.359 36.2761 155.975 36.0228C156.594 35.7667 157.296 35.6937 158.08 35.8039C158.864 35.9141 159.517 36.1775 160.038 36.594C160.564 37.0075 160.939 37.5373 161.164 38.1832C161.389 38.8258 161.446 39.5476 161.333 40.3486C161.221 41.1428 160.968 41.8194 160.574 42.3783C160.18 42.9338 159.674 43.3397 159.054 43.5958C158.439 43.8491 157.739 43.9206 156.955 43.8104ZM157.199 42.1459C157.556 42.196 157.868 42.1369 158.135 41.9686C158.403 41.7969 158.622 41.5428 158.793 41.2065C158.967 40.8706 159.086 40.4772 159.149 40.0262C159.213 39.5752 159.207 39.1643 159.132 38.7934C159.061 38.423 158.92 38.1184 158.71 37.8795C158.5 37.6407 158.216 37.4961 157.859 37.446C157.499 37.3954 157.182 37.4555 156.908 37.6262C156.636 37.7975 156.414 38.051 156.239 38.3869C156.069 38.7233 155.952 39.1169 155.888 39.5679C155.825 40.0189 155.829 40.4296 155.9 40.8C155.975 41.1708 156.119 41.4759 156.333 41.7153C156.55 41.9518 156.839 42.0953 157.199 42.1459ZM171.412 35.1448L169.959 45.4835L167.773 45.1763L168.934 36.9124L168.874 36.9039L166.297 38.0553L166.57 36.1168L169.357 34.856L171.412 35.1448ZM172.515 43.9895L172.757 42.2681L178.029 36.0748L179.513 36.2833L179.178 38.6661L178.3 38.5426L174.973 42.4664L174.962 42.5471L181.096 43.4092L180.849 45.1609L172.515 43.9895ZM177.222 46.5043L177.551 44.1619L177.699 43.4053L178.715 36.1712L180.765 36.4593L179.312 46.798L177.222 46.5043ZM186.072 47.9798C185.204 47.8544 184.487 47.5357 183.921 47.0237C183.358 46.5121 182.965 45.8305 182.741 44.9789C182.521 44.1277 182.492 43.1369 182.654 42.0066C182.813 40.8792 183.114 39.9418 183.559 39.1943C184.007 38.4474 184.572 37.9107 185.253 37.5842C185.937 37.2549 186.712 37.151 187.577 37.2725C188.442 37.3941 189.156 37.7073 189.72 38.2121C190.288 38.7174 190.684 39.3908 190.909 40.2324C191.134 41.0706 191.166 42.0531 191.004 43.1801C190.845 44.3143 190.54 45.2599 190.091 46.0169C189.644 46.7744 189.08 47.3215 188.398 47.658C187.716 47.9946 186.941 48.1018 186.072 47.9798ZM186.327 46.1675C186.919 46.2507 187.434 46.0193 187.871 45.4733C188.308 44.9273 188.609 44.0584 188.773 42.8665C188.883 42.0824 188.894 41.4181 188.806 40.8737C188.721 40.3299 188.551 39.9061 188.295 39.6024C188.042 39.2993 187.719 39.12 187.325 39.0647C186.736 38.9819 186.224 39.2101 185.788 39.7494C185.351 40.2887 185.049 41.1454 184.881 42.3195C184.769 43.1138 184.755 43.7879 184.838 44.3418C184.926 44.8929 185.097 45.322 185.352 45.629C185.608 45.9327 185.933 46.1122 186.327 46.1675ZM195.148 49.0237L196.238 41.2696L198.388 41.5719L197.965 44.5806L198.571 44.6657L201.104 41.9536L203.628 42.3083L200.347 45.7698L202.569 50.0666L200.015 49.7076L198.488 46.6874L197.685 46.5746L197.299 49.3259L195.148 49.0237ZM209.878 43.1866L209.64 44.8778L206.42 44.4251L205.568 50.488L203.478 50.1943L204.567 42.4403L209.878 43.1866Z" fill="white" fill-opacity="0.5"/>
</svg>
